<svg width="565" height="442" viewBox="0 0 565 442" fill="none" xmlns="http://www.w3.org/2000/svg">
<g filter="url(#filter0_d)">
<g filter="url(#filter1_d)">
<rect x="36.5605" y="44" width="340" height="197" rx="4" fill="white"/>
<rect x="36.0605" y="43.5" width="341" height="198" rx="4.5" stroke="black" stroke-opacity="0.05"/>
</g>
<rect x="176.061" y="56.5" width="40" height="7" rx="3.5" fill="#DFE5EC" stroke="#DFE5EC"/>
<rect x="58.0605" y="70.5" width="40" height="7" rx="3.5" fill="#DFE5EC" stroke="#DFE5EC"/>
<rect x="119.061" y="70.5" width="30" height="7" rx="3.5" fill="#DFE5EC" stroke="#DFE5EC"/>
<rect x="323.061" y="70.5" width="30" height="7" rx="3.5" fill="#DFE5EC" stroke="#DFE5EC"/>
<rect x="244.061" y="70.5" width="58" height="7" rx="3.5" fill="#DFE5EC" stroke="#DFE5EC"/>
<rect x="50.8105" y="90.25" width="310.5" height="0.5" rx="0.25" fill="#DFE5EC" stroke="#F7F9FB" stroke-width="0.5"/>
<rect x="58.0605" y="103.5" width="40" height="7" rx="3.5" fill="#DFE5EC" stroke="#DFE5EC"/>
<rect x="119.061" y="103.5" width="30" height="7" rx="3.5" fill="#DFE5EC" stroke="#DFE5EC"/>
<rect x="323.061" y="103.5" width="30" height="7" rx="3.5" fill="#DFE5EC" stroke="#DFE5EC"/>
<rect x="244.061" y="103.5" width="58" height="7" rx="3.5" fill="#DFE5EC" stroke="#DFE5EC"/>
<rect x="50.8105" y="123.25" width="310.5" height="0.5" rx="0.25" fill="#DFE5EC" stroke="#F7F9FB" stroke-width="0.5"/>
<rect x="58.0605" y="136.5" width="40" height="7" rx="3.5" fill="#DFE5EC" stroke="#DFE5EC"/>
<rect x="119.061" y="136.5" width="30" height="7" rx="3.5" fill="#DFE5EC" stroke="#DFE5EC"/>
<rect x="323.061" y="136.5" width="30" height="7" rx="3.5" fill="#DFE5EC" stroke="#DFE5EC"/>
<rect x="244.061" y="136.5" width="58" height="7" rx="3.5" fill="#DFE5EC" stroke="#DFE5EC"/>
<rect x="50.8105" y="156.25" width="310.5" height="0.5" rx="0.25" fill="#DFE5EC" stroke="#F7F9FB" stroke-width="0.5"/>
<rect x="58.0605" y="169.5" width="40" height="7" rx="3.5" fill="#DFE5EC" stroke="#DFE5EC"/>
<rect x="119.061" y="169.5" width="30" height="7" rx="3.5" fill="#DFE5EC" stroke="#DFE5EC"/>
<rect x="323.061" y="169.5" width="30" height="7" rx="3.5" fill="#DFE5EC" stroke="#DFE5EC"/>
<rect x="244.061" y="169.5" width="58" height="7" rx="3.5" fill="#DFE5EC" stroke="#DFE5EC"/>
<rect x="50.8105" y="189.25" width="310.5" height="0.5" rx="0.25" fill="#DFE5EC" stroke="#F7F9FB" stroke-width="0.5"/>
<rect x="58.0605" y="202.5" width="40" height="7" rx="3.5" fill="#DFE5EC" stroke="#DFE5EC"/>
<rect x="119.061" y="202.5" width="30" height="7" rx="3.5" fill="#DFE5EC" stroke="#DFE5EC"/>
<rect x="323.061" y="202.5" width="30" height="7" rx="3.5" fill="#DFE5EC" stroke="#DFE5EC"/>
<rect x="244.061" y="202.5" width="58" height="7" rx="3.5" fill="#DFE5EC" stroke="#DFE5EC"/>
<rect x="50.8105" y="222.25" width="310.5" height="0.5" rx="0.25" fill="#DFE5EC" stroke="#F7F9FB" stroke-width="0.5"/>
<g filter="url(#filter2_d)">
<circle cx="207" cy="44" r="38" fill="#E6F8FF"/>
</g>
<path d="M206.482 54.1992L222.127 57.657V30.4553L206.482 33.9131V54.1992Z" fill="#205B97"/>
<path d="M222.129 30.4553L225.109 31.8384V56.2739L222.129 57.657V30.4553ZM206.484 54.1992L190.84 57.657V30.4553L206.484 33.9131V54.1992Z" fill="#5193CE"/>
<path d="M190.839 30.4553L187.859 31.8384V56.2739L190.839 57.657V30.4553Z" fill="#205B97"/>
<path d="M210.459 63.1894L216.419 60.4232V27.7662L210.459 25L208.637 43.1345L210.459 63.1894Z" fill="#5193CE"/>
<path d="M202.511 63.1894L196.551 60.4232V27.7662L202.511 25L204.333 43.1345L202.511 63.1894Z" fill="#205B97"/>
<path d="M202.51 25H210.538V63.1123H202.51V25Z" fill="#2E73B7"/>
</g>
<g filter="url(#filter3_d)">
<g filter="url(#filter4_d)">
<rect x="213.059" y="218" width="340" height="197" rx="4" fill="white"/>
<rect x="212.559" y="217.5" width="341" height="198" rx="4.5" stroke="black" stroke-opacity="0.05"/>
</g>
<rect x="381.059" y="285" width="129" height="14" rx="7" fill="#DFE5EC"/>
<rect x="405.059" y="316" width="87" height="13" rx="6.5" fill="#DFE5EC"/>
<rect x="405.059" y="343" width="115" height="14" rx="7" fill="#DFE5EC"/>
<rect x="381.059" y="343" width="14" height="14" rx="7" fill="#DFE5EC"/>
<rect x="381.059" y="315" width="14" height="14" rx="7" fill="#DFE5EC"/>
<rect x="235.059" y="381" width="71" height="14" rx="7" fill="#DFE5EC"/>
<rect x="235.059" y="236" width="71" height="14" rx="7" fill="#DFE5EC"/>
<rect x="463.059" y="381" width="71" height="14" rx="7" fill="#DFE5EC"/>
<path d="M235.059 341C235.059 336.582 238.64 333 243.059 333C247.477 333 251.059 336.582 251.059 341V355C251.059 359.418 247.477 363 243.059 363C238.64 363 235.059 359.418 235.059 355V341Z" fill="#DFE5EC"/>
<path d="M261.059 319C261.059 314.582 264.64 311 269.059 311C273.477 311 277.059 314.582 277.059 319V355C277.059 359.418 273.477 363 269.059 363C264.64 363 261.059 359.418 261.059 355V319Z" fill="#DFE5EC"/>
<path d="M315.059 279C315.059 274.582 318.64 271 323.059 271C327.477 271 331.059 274.582 331.059 279V355C331.059 359.418 327.477 363 323.059 363C318.64 363 315.059 359.418 315.059 355V279Z" fill="#DFE5EC"/>
<path d="M288.059 301C288.059 296.582 291.64 293 296.059 293C300.477 293 304.059 296.582 304.059 301V355C304.059 359.418 300.477 363 296.059 363C291.64 363 288.059 359.418 288.059 355V301Z" fill="#DFE5EC"/>
<g filter="url(#filter5_d)">
<circle cx="383.059" cy="219.861" r="38" fill="#FFF9E6"/>
</g>
<path d="M393.752 237.589H372.364C371.001 237.589 369.896 236.447 369.896 235.037V204.417C369.896 203.007 371.001 201.865 372.364 201.865H387.993L396.219 210.371V235.037C396.219 236.447 395.115 237.589 393.752 237.589Z" fill="#FFC107"/>
<path d="M396.22 210.245H387.863V201.865L396.22 210.245Z" fill="#FFECB3"/>
<path d="M387.863 210.245L396.22 218.624V210.245H387.863Z" fill="#FFA000"/>
<path d="M387.915 218.183H378.201C377.311 218.183 376.582 218.927 376.582 219.837V229.76C376.582 230.67 377.311 231.414 378.201 231.414H387.915C388.806 231.414 389.535 230.67 389.535 229.76V219.837C389.535 218.927 388.806 218.183 387.915 218.183ZM387.915 221.491V228.107H378.201V221.491H387.915Z" fill="white"/>
</g>
<path d="M50.0859 245C50.0859 245 36.4149 332.632 72.036 363.287C107.657 393.942 212.061 384.395 212.061 384.395" stroke="#20DFAC" stroke-width="4" stroke-linecap="round"/>
<defs>
<filter id="filter0_d" x="25.5605" y="0" width="362" height="256" filterUnits="userSpaceOnUse" color-interpolation-filters="sRGB">
<feFlood flood-opacity="0" result="BackgroundImageFix"/>
<feColorMatrix in="SourceAlpha" type="matrix" values="0 0 0 0 0 0 0 0 0 0 0 0 0 0 0 0 0 0 127 0"/>
<feOffset dy="4"/>
<feGaussianBlur stdDeviation="5"/>
<feColorMatrix type="matrix" values="0 0 0 0 0 0 0 0 0 0 0 0 0 0 0 0 0 0 0.1 0"/>
<feBlend mode="normal" in2="BackgroundImageFix" result="effect1_dropShadow"/>
<feBlend mode="normal" in="SourceGraphic" in2="effect1_dropShadow" result="shape"/>
</filter>
<filter id="filter1_d" x="25.5605" y="37" width="362" height="219" filterUnits="userSpaceOnUse" color-interpolation-filters="sRGB">
<feFlood flood-opacity="0" result="BackgroundImageFix"/>
<feColorMatrix in="SourceAlpha" type="matrix" values="0 0 0 0 0 0 0 0 0 0 0 0 0 0 0 0 0 0 127 0"/>
<feOffset dy="4"/>
<feGaussianBlur stdDeviation="5"/>
<feColorMatrix type="matrix" values="0 0 0 0 0 0 0 0 0 0 0 0 0 0 0 0 0 0 0.05 0"/>
<feBlend mode="normal" in2="BackgroundImageFix" result="effect1_dropShadow"/>
<feBlend mode="normal" in="SourceGraphic" in2="effect1_dropShadow" result="shape"/>
</filter>
<filter id="filter2_d" x="167" y="5" width="80" height="80" filterUnits="userSpaceOnUse" color-interpolation-filters="sRGB">
<feFlood flood-opacity="0" result="BackgroundImageFix"/>
<feColorMatrix in="SourceAlpha" type="matrix" values="0 0 0 0 0 0 0 0 0 0 0 0 0 0 0 0 0 0 127 0"/>
<feOffset dy="1"/>
<feGaussianBlur stdDeviation="1"/>
<feColorMatrix type="matrix" values="0 0 0 0 0 0 0 0 0 0 0 0 0 0 0 0 0 0 0.05 0"/>
<feBlend mode="normal" in2="BackgroundImageFix" result="effect1_dropShadow"/>
<feBlend mode="normal" in="SourceGraphic" in2="effect1_dropShadow" result="shape"/>
</filter>
<filter id="filter3_d" x="202.059" y="175.861" width="362" height="254.139" filterUnits="userSpaceOnUse" color-interpolation-filters="sRGB">
<feFlood flood-opacity="0" result="BackgroundImageFix"/>
<feColorMatrix in="SourceAlpha" type="matrix" values="0 0 0 0 0 0 0 0 0 0 0 0 0 0 0 0 0 0 127 0"/>
<feOffset dy="4"/>
<feGaussianBlur stdDeviation="5"/>
<feColorMatrix type="matrix" values="0 0 0 0 0 0 0 0 0 0 0 0 0 0 0 0 0 0 0.1 0"/>
<feBlend mode="normal" in2="BackgroundImageFix" result="effect1_dropShadow"/>
<feBlend mode="normal" in="SourceGraphic" in2="effect1_dropShadow" result="shape"/>
</filter>
<filter id="filter4_d" x="202.059" y="211" width="362" height="219" filterUnits="userSpaceOnUse" color-interpolation-filters="sRGB">
<feFlood flood-opacity="0" result="BackgroundImageFix"/>
<feColorMatrix in="SourceAlpha" type="matrix" values="0 0 0 0 0 0 0 0 0 0 0 0 0 0 0 0 0 0 127 0"/>
<feOffset dy="4"/>
<feGaussianBlur stdDeviation="5"/>
<feColorMatrix type="matrix" values="0 0 0 0 0 0 0 0 0 0 0 0 0 0 0 0 0 0 0.05 0"/>
<feBlend mode="normal" in2="BackgroundImageFix" result="effect1_dropShadow"/>
<feBlend mode="normal" in="SourceGraphic" in2="effect1_dropShadow" result="shape"/>
</filter>
<filter id="filter5_d" x="343.059" y="180.861" width="80" height="80" filterUnits="userSpaceOnUse" color-interpolation-filters="sRGB">
<feFlood flood-opacity="0" result="BackgroundImageFix"/>
<feColorMatrix in="SourceAlpha" type="matrix" values="0 0 0 0 0 0 0 0 0 0 0 0 0 0 0 0 0 0 127 0"/>
<feOffset dy="1"/>
<feGaussianBlur stdDeviation="1"/>
<feColorMatrix type="matrix" values="0 0 0 0 0 0 0 0 0 0 0 0 0 0 0 0 0 0 0.05 0"/>
<feBlend mode="normal" in2="BackgroundImageFix" result="effect1_dropShadow"/>
<feBlend mode="normal" in="SourceGraphic" in2="effect1_dropShadow" result="shape"/>
</filter>
</defs>
</svg>
