<svg width="125" height="35" viewBox="0 0 125 35" fill="none" xmlns="http://www.w3.org/2000/svg">
<g opacity="0.6">
<path d="M5.859 14.3651C7.60788 7.90354 14.3167 4.06898 20.8436 5.80034C23.0975 6.39824 25.035 7.58171 26.5338 9.14112L31.336 6.39632C29.0747 3.66531 25.9594 1.5842 22.251 0.600492C12.8233 -1.90037 3.13272 3.63845 0.606565 12.9718C-1.91959 22.3051 3.67525 31.8986 13.103 34.3995C22.0889 36.7832 31.3135 31.863 34.3458 23.315L29.071 21.9157C26.8345 27.5922 20.5934 30.8133 14.5104 29.1997C7.98347 27.4683 4.11013 20.8266 5.859 14.3651Z" fill="white"/>
<path d="M34.5841 12.2318L41.3129 23.7698L36.2729 22.4329C35.5764 22.2481 34.9825 21.797 34.622 21.1788L32.9422 18.2983L30.0326 19.9613C29.4081 20.3183 28.666 20.415 27.9694 20.2302L22.9294 18.8933L34.5841 12.2318Z" fill="white"/>
<path d="M105.16 10.625C106.543 10.625 107.664 9.50571 107.664 8.125C107.664 6.74429 106.543 5.625 105.16 5.625C103.777 5.625 102.656 6.74429 102.656 8.125C102.656 9.50571 103.777 10.625 105.16 10.625Z" fill="white"/>
<path d="M51.0177 27.5H55.2241V13.94L60.5723 23.87H63.0961L68.4443 13.94V27.5H72.6807V6.5H70.6977C69.3107 6.5 68.0365 7.26331 67.3838 8.48529L61.9544 18.65L56.4964 8.47894C55.8425 7.26049 54.5703 6.5 53.1859 6.5H51.0177V27.5Z" fill="white"/>
<path fill-rule="evenodd" clip-rule="evenodd" d="M80.1321 27.86C82.0249 27.86 83.6174 27.2 84.699 25.58V27.5H88.5148V18.8C88.5148 14.21 86.4417 11.875 82.0249 11.875C79.1405 11.875 77.5004 13.205 75.5487 15L78.0526 17.5C79.3045 16.25 80.5564 15.4386 82.0249 15.4386C83.6775 15.4386 84.4887 16.13 84.4887 17.84V18.35L80.8832 18.95C77.9988 19.4 75.1144 20.39 75.1144 23.51C75.1144 26.3 76.8571 27.86 80.1321 27.86ZM81.2437 24.8C79.7715 24.8 79.1405 24.29 79.1405 23.27C79.1405 22.01 80.1921 21.62 81.8747 21.35L84.4887 20.93V21.86C84.4887 23.69 82.9564 24.8 81.2437 24.8Z" fill="white"/>
<path d="M100.587 27.5C99.8658 27.71 97.622 27.8 96.9309 27.8C93.686 27.8 92.394 26.06 92.394 23.66V16.07H90.107L88.8551 12.71H92.394V8.57H96.4202V12.71H100.587V16.07H96.4202V22.7C96.4202 23.81 96.7507 24.35 97.9825 24.35L98.0552 24.3501L98.1445 24.3505C98.6645 24.3529 99.4596 24.3565 100.587 24.1895V27.5Z" fill="white"/>
<path d="M103.114 27.5H107.17V12.71H103.114V27.5Z" fill="white"/>
<path d="M114.604 27.5H110.548V6.5H114.604V18.75L119.892 12.71H124.85L118.15 19.37L125 27.5H119.952L114.604 20.7442V27.5Z" fill="white"/>
</g>
</svg>
