<svg width="142" height="40" viewBox="0 0 142 40" fill="none" xmlns="http://www.w3.org/2000/svg">
<path d="M6.65583 16.4172C8.64255 9.03262 16.2638 4.65026 23.6783 6.62896C26.2388 7.31227 28.4398 8.66481 30.1424 10.447L35.5978 7.31008C33.0289 4.18892 29.4898 1.81052 25.2771 0.686277C14.5672 -2.17185 3.55877 4.15823 0.689058 14.8249C-2.18065 25.4916 4.17508 36.4556 14.885 39.3137C25.093 42.0379 35.5722 36.4149 39.0168 26.6457L33.0246 25.0466C30.484 31.534 23.3941 35.2152 16.4838 33.371C9.06923 31.3923 4.6691 23.8019 6.65583 16.4172Z" fill="#20DFAC"/>
<path d="M39.2875 13.9792L46.9315 27.1655L41.206 25.6376C40.4148 25.4264 39.7402 24.9109 39.3306 24.2043L37.4223 20.9124L34.117 22.813C33.4076 23.2209 32.5645 23.3314 31.7733 23.1203L26.0478 21.5923L39.2875 13.9792Z" fill="#20DFAC"/>
<path d="M119.462 12.1429C121.033 12.1429 122.306 10.8637 122.306 9.28573C122.306 7.70778 121.033 6.42859 119.462 6.42859C117.891 6.42859 116.618 7.70778 116.618 9.28573C116.618 10.8637 117.891 12.1429 119.462 12.1429Z" fill="#0C1B25"/>
<path d="M57.9561 31.4286H62.7345V15.9314L68.81 27.28H71.6771L77.7526 15.9314V31.4286H82.5652V7.42859H80.3125C78.7368 7.42859 77.2894 8.30094 76.548 9.6975L70.3801 21.3143L64.1798 9.69024C63.4371 8.29772 61.9919 7.42859 60.4191 7.42859H57.9561V31.4286Z" fill="#0C1B25"/>
<path fill-rule="evenodd" clip-rule="evenodd" d="M91.03 31.84C93.1803 31.84 94.9893 31.0857 96.218 29.2343V31.4286H100.553V21.4857C100.553 16.24 98.1977 13.5715 93.1803 13.5715C89.9036 13.5715 88.0404 15.0915 85.8233 17.1429L88.6677 20C90.0898 18.5715 91.512 17.6441 93.1803 17.6441C95.0575 17.6441 95.9791 18.4343 95.9791 20.3886V20.9714L91.8833 21.6572C88.6066 22.1714 85.3299 23.3029 85.3299 26.8686C85.3299 30.0572 87.3096 31.84 91.03 31.84ZM92.2928 28.3429C90.6204 28.3429 89.9036 27.76 89.9036 26.5943C89.9036 25.1543 91.0982 24.7086 93.0096 24.4L95.9791 23.92V24.9829C95.9791 27.0743 94.2384 28.3429 92.2928 28.3429Z" fill="#0C1B25"/>
<path d="M114.267 31.4286C113.447 31.6686 110.899 31.7715 110.113 31.7715C106.427 31.7715 104.96 29.7829 104.96 27.04V18.3657H102.361L100.939 14.5257H104.96V9.7943H109.533V14.5257H114.267V18.3657H109.533V25.9429C109.533 27.2114 109.909 27.8286 111.308 27.8286L111.391 27.8287L111.492 27.8292C112.083 27.8319 112.986 27.8361 114.267 27.6451V31.4286Z" fill="#0C1B25"/>
<path d="M117.138 31.4286H121.745V14.5257H117.138V31.4286Z" fill="#0C1B25"/>
<path d="M130.19 31.4286H125.582V7.42859H130.19V21.4286L136.197 14.5257H141.829L134.218 22.1372L142 31.4286H136.266L130.19 23.7077V31.4286Z" fill="#0C1B25"/>
</svg>
