<svg width="222" height="54" viewBox="0 0 222 54" fill="none" xmlns="http://www.w3.org/2000/svg">
<path fill-rule="evenodd" clip-rule="evenodd" d="M7 9.28401L25.1816 0L46.9807 22.4801L47 22.4699V22.5V44.9697L29 54V32.0001L29.0704 31.9629L29 32L15 17.5444V38.5757L0 46V23.4233L13.9889 16.5004L7 9.28401ZM15 50.0997L22 52V40.9003L15 39V50.0997ZM65.9534 29.0546H82.0466V17H86V45H82.0466V32.7498H65.9534V45H62V17H65.9534V29.0546ZM117.901 38.1561C115.984 40.0465 113.314 41.0883 110.38 41.0883C107.454 41.0883 104.79 40.0465 102.876 38.1561C100.925 36.2292 99.8516 33.4946 99.8516 30.4572C99.8516 27.4186 100.925 24.6851 102.876 22.7582C104.79 20.8667 107.454 19.826 110.38 19.826C113.314 19.826 115.984 20.8667 117.901 22.7582C119.853 24.684 120.926 27.4186 120.926 30.4572C120.926 33.4957 119.853 36.2303 117.901 38.1561ZM110.38 16.0732C101.922 16.0732 95.7844 22.1223 95.7844 30.4572C95.7844 38.792 101.922 44.8412 110.38 44.8412C118.837 44.8412 124.976 38.792 124.976 30.4572C124.976 22.1223 118.837 16.0732 110.38 16.0732ZM134.239 16.4629L144.543 40.0432L154.864 16.4629H158.939L146.714 44.4512H142.31L142.213 44.2299L130.066 16.4629H134.239ZM170.801 32.1874H185.351V28.5323H170.801V20.1373H187.949V16.4629H166.89V44.4511H188.126V40.7767H170.801V32.1874ZM202.298 20.137V29.0185H209.52C213.504 29.0185 215.524 27.5052 215.524 24.5192C215.524 21.6117 213.504 20.137 209.52 20.137H202.298ZM219.552 24.5192C219.552 29.6232 215.93 31.9207 212.381 32.4652L221.226 44.4519H216.522L208.009 32.5963H202.298V44.4519H198.387V16.4626H209.559C212.727 16.4626 215.207 17.1618 216.928 18.542C218.669 19.9372 219.552 21.9479 219.552 24.5192Z" fill="white"/>
</svg>
