<svg width="497" height="405" viewBox="0 0 497 405" fill="none" xmlns="http://www.w3.org/2000/svg">
<g filter="url(#filter0_d)">
<g filter="url(#filter1_d)">
<rect x="11" y="7.4989" width="355.367" height="199.754" rx="4" fill="white"/>
<rect x="10.5" y="6.9989" width="356.367" height="200.754" rx="4.5" stroke="black" stroke-opacity="0.05"/>
</g>
<rect opacity="0.1" x="31.1152" y="177.538" width="68.7266" height="9.90517" rx="4" fill="#001F35"/>
<rect opacity="0.2" x="195.389" y="34.7381" width="150.025" height="13.2069" rx="4" fill="#001F35"/>
<rect opacity="0.1" x="218.856" y="64.4536" width="85.4892" height="13.2069" rx="4" fill="#001F35"/>
<rect opacity="0.1" x="195.389" y="64.4536" width="13.4101" height="13.2069" rx="6.60345" fill="#001F35"/>
<rect opacity="0.1" x="218.856" y="90.8674" width="113.147" height="13.2069" rx="4" fill="#001F35"/>
<rect opacity="0.1" x="195.389" y="90.8674" width="13.4101" height="13.2069" rx="6.60345" fill="#001F35"/>
<rect opacity="0.1" x="218.856" y="117.281" width="70.4029" height="13.2069" rx="4" fill="#001F35"/>
<rect opacity="0.1" x="195.389" y="117.281" width="13.4101" height="13.2069" rx="6.60345" fill="#001F35"/>
<rect opacity="0.1" x="218.856" y="143.695" width="70.4029" height="13.2069" rx="4" fill="#001F35"/>
<rect opacity="0.1" x="195.389" y="143.695" width="13.4101" height="13.2069" rx="6.60345" fill="#001F35"/>
<path d="M155.158 95.82C155.158 80.7041 149.467 66.125 139.185 54.902C128.904 43.6789 114.762 36.6092 99.494 35.0598C84.2263 33.5105 68.9176 37.5915 56.528 46.5139C44.1385 55.4362 35.5483 68.566 32.4184 83.3643C29.2886 98.1627 31.8415 113.578 39.5834 126.63C47.3254 139.683 59.7065 149.444 74.3325 154.027C88.9586 158.61 104.791 157.689 118.767 151.442C132.744 145.196 143.872 134.067 150 120.208L127.255 110.453C123.578 118.768 116.901 125.445 108.515 129.193C100.129 132.941 90.6299 133.494 81.8542 130.744C73.0786 127.994 65.65 122.138 61.0048 114.306C56.3596 106.475 54.8279 97.2256 56.7058 88.3466C58.5837 79.4676 63.7378 71.5897 71.1716 66.2363C78.6053 60.8829 87.7905 58.4343 96.9511 59.3639C106.112 60.2935 114.597 64.5354 120.766 71.2692C126.935 78.003 130.35 86.7504 130.35 95.82H155.158Z" fill="black" fill-opacity="0.05"/>
<path d="M155.158 95.82C155.158 110.302 149.934 124.313 140.416 135.353C130.899 146.393 117.709 153.743 103.199 156.093C88.6884 158.442 73.8026 155.638 61.1975 148.18C48.5923 140.722 39.0878 129.096 34.3798 115.376C29.6719 101.656 30.0669 86.7352 35.4942 73.2756C40.9216 59.8159 51.0283 48.6933 64.0109 41.8924C76.9936 35.0914 92.0074 33.0546 106.374 36.1454C120.74 39.2362 133.523 47.2536 142.444 58.7668L122.721 73.5881C117.369 66.6801 109.699 61.8698 101.079 60.0153C92.4592 58.1608 83.4509 59.3829 75.6613 63.4634C67.8717 67.544 61.8077 74.2176 58.5513 82.2933C55.2948 90.3691 55.0579 99.3217 57.8826 107.554C60.7074 115.786 66.4101 122.761 73.9732 127.236C81.5363 131.711 90.4678 133.393 99.1738 131.984C107.88 130.574 115.794 126.164 121.505 119.54C127.215 112.916 130.35 104.509 130.35 95.82H155.158Z" fill="#FFD595"/>
<path d="M155.158 95.82C155.158 105.865 152.643 115.755 147.835 124.614C143.027 133.473 136.075 141.027 127.594 146.608C119.114 152.188 109.366 155.623 99.216 156.608C89.0656 157.592 78.8253 156.096 69.4022 152.252C59.9791 148.408 51.664 142.335 45.1935 134.57C38.723 126.805 34.2968 117.588 32.307 107.737C30.3171 97.8846 30.8251 87.7013 33.7859 78.0889C36.7466 68.4764 42.0688 59.7315 49.2809 52.6286L66.8233 69.9052C62.496 74.1669 59.3027 79.4139 57.5262 85.1813C55.7498 90.9488 55.445 97.0587 56.6389 102.97C57.8328 108.881 60.4885 114.411 64.3708 119.07C68.2531 123.729 73.2422 127.373 78.896 129.679C84.5499 131.986 90.6941 132.883 96.7843 132.293C102.875 131.702 108.723 129.641 113.811 126.293C118.9 122.944 123.071 118.412 125.956 113.096C128.841 107.781 130.35 101.847 130.35 95.82H155.158Z" fill="#20DFAC"/>
</g>
<g clip-path="url(#clip0)" filter="url(#filter2_d)">
<g filter="url(#filter3_d)">
<rect x="209" y="73" width="272" height="301" rx="4" fill="white"/>
<rect x="208.5" y="72.5" width="273" height="302" rx="4.5" stroke="black" stroke-opacity="0.05"/>
</g>
<path d="M209 120.499C209 119.947 209.448 119.499 210 119.499H480C480.552 119.499 481 119.947 481 120.499H209Z" fill="black" fill-opacity="0.05"/>
<path d="M226.312 102.499H227.864V91.2989H226.312V102.499ZM230.372 102.499H231.86V98.3869C231.86 96.7869 232.436 95.8269 233.86 95.8269C234.98 95.8269 235.444 96.4189 235.444 97.8269V102.499H236.932V97.6989C236.932 95.4909 236.02 94.4669 234.196 94.4669C233.108 94.4669 232.404 94.8189 231.796 95.6669V94.6429H230.372V102.499ZM239.122 105.971H240.61V101.523C241.218 102.323 241.97 102.675 243.01 102.675C245.09 102.675 246.498 101.059 246.498 98.5629C246.498 96.0829 245.122 94.4669 243.01 94.4669C241.97 94.4669 241.218 94.8189 240.546 95.6669V94.6429H239.122V105.971ZM242.802 101.331C241.394 101.331 240.578 100.371 240.578 98.5629C240.578 96.7549 241.394 95.8109 242.802 95.8109C244.194 95.8109 245.026 96.7549 245.026 98.5629C245.026 100.371 244.194 101.331 242.802 101.331ZM250.965 102.659C252.037 102.659 252.741 102.307 253.301 101.443V102.499H254.725V94.6429H253.237V98.7389C253.237 100.339 252.661 101.299 251.317 101.299C250.197 101.299 249.733 100.707 249.733 99.2989V94.6429H248.245V99.4269C248.245 101.635 249.157 102.659 250.965 102.659ZM259.49 102.627C259.842 102.627 260.194 102.579 260.546 102.499V101.187C260.306 101.235 260.13 101.267 259.858 101.267C259.01 101.267 258.85 100.899 258.85 100.227V95.9869H260.546V94.6429H258.85V92.3389H257.362V94.6429H256.226V95.9869H257.362V100.547C257.362 101.827 257.906 102.627 259.49 102.627ZM264.826 102.675C266.858 102.675 268.074 101.811 268.074 100.291C268.074 99.0429 267.258 98.3549 265.354 97.9229L264.65 97.7629C263.61 97.5229 263.242 97.2189 263.242 96.6589C263.242 95.9709 263.786 95.7149 264.762 95.7149C265.722 95.7149 266.298 96.0349 266.426 96.8829H267.914C267.754 95.3149 266.634 94.4669 264.73 94.4669C262.874 94.4669 261.754 95.2829 261.754 96.7389C261.754 97.9389 262.506 98.6269 264.41 99.0749L265.098 99.2349C266.186 99.4909 266.586 99.7949 266.586 100.387C266.586 101.139 265.978 101.427 264.858 101.427C263.818 101.427 263.194 101.059 263.018 100.147H261.546C261.722 101.795 262.89 102.675 264.826 102.675Z" fill="#2687D0"/>
<path d="M231 153.675C233.464 153.675 235.224 152.235 235.848 149.819H234.248C233.72 151.467 232.632 152.235 231.032 152.235C228.76 152.235 227.352 150.571 227.352 147.899C227.352 145.227 228.76 143.563 231.032 143.563C232.6 143.563 233.672 144.299 234.232 145.851H235.864C235.208 143.531 233.464 142.123 231.032 142.123C227.896 142.123 225.8 144.491 225.8 147.883C225.8 151.355 227.864 153.675 231 153.675ZM240.712 153.675C242.952 153.675 244.424 152.059 244.424 149.563C244.424 147.083 242.952 145.467 240.712 145.467C238.472 145.467 236.984 147.083 236.984 149.563C236.984 152.059 238.472 153.675 240.712 153.675ZM240.712 152.331C239.304 152.331 238.488 151.371 238.488 149.563C238.488 147.755 239.304 146.811 240.712 146.811C242.104 146.811 242.92 147.755 242.92 149.563C242.92 151.371 242.104 152.331 240.712 152.331ZM254.855 145.467C253.735 145.467 252.855 145.931 252.311 146.859C251.879 145.899 251.095 145.467 249.991 145.467C248.951 145.467 248.295 145.819 247.687 146.667V145.643H246.263V153.499H247.751V149.451C247.751 147.787 248.295 146.827 249.671 146.827C250.727 146.827 251.175 147.419 251.175 148.795V153.499H252.663V149.451C252.663 147.787 253.223 146.827 254.583 146.827C255.655 146.827 256.087 147.419 256.087 148.795V153.499H257.575V148.699C257.575 146.491 256.663 145.467 254.855 145.467ZM259.763 156.971H261.251V152.523C261.859 153.323 262.611 153.675 263.651 153.675C265.731 153.675 267.139 152.059 267.139 149.563C267.139 147.083 265.763 145.467 263.651 145.467C262.611 145.467 261.859 145.819 261.187 146.667V145.643H259.763V156.971ZM263.443 152.331C262.035 152.331 261.219 151.371 261.219 149.563C261.219 147.755 262.035 146.811 263.443 146.811C264.835 146.811 265.667 147.755 265.667 149.563C265.667 151.371 264.835 152.331 263.443 152.331ZM271.141 153.675C272.293 153.675 272.997 153.371 273.685 152.411V153.499H275.125V148.635C275.125 146.363 274.037 145.467 272.005 145.467C270.213 145.467 268.869 146.347 268.741 148.027H270.229C270.357 147.131 270.901 146.747 271.973 146.747C273.029 146.747 273.637 147.131 273.637 148.395V148.683L271.541 149.051C269.893 149.339 268.549 149.883 268.549 151.467C268.549 152.907 269.525 153.675 271.141 153.675ZM271.509 152.411C270.469 152.411 270.021 152.075 270.021 151.387C270.021 150.539 270.789 150.379 271.989 150.171L273.637 149.883V150.507C273.637 151.659 272.645 152.411 271.509 152.411ZM277.434 153.499H278.922V149.387C278.922 147.787 279.498 146.827 280.922 146.827C282.042 146.827 282.506 147.419 282.506 148.827V153.499H283.994V148.699C283.994 146.491 283.082 145.467 281.258 145.467C280.17 145.467 279.466 145.819 278.858 146.667V145.643H277.434V153.499ZM286.536 157.131C287.752 157.131 288.328 156.635 288.872 155.179L292.408 145.643H290.888L288.84 151.595L286.648 145.643H285.08L288.056 153.371L287.528 154.859C287.256 155.627 286.952 155.835 286.344 155.835C286.12 155.835 285.896 155.803 285.64 155.723L285.544 157.019C285.832 157.099 286.152 157.131 286.536 157.131Z" fill="#6A7077"/>
<rect x="225" y="162.499" width="240" height="36" rx="4" fill="#F3F6F9"/>
<rect opacity="0.1" x="237" y="174.499" width="48.8594" height="12" rx="4" fill="#001F35"/>
<rect opacity="0.1" x="293" y="174.499" width="48.8594" height="12" rx="4" fill="#001F35"/>
<rect opacity="0.1" x="350.984" y="174.499" width="48.8594" height="12" rx="4" fill="#001F35"/>
<path d="M231 230.675C233.464 230.675 235.224 229.235 235.848 226.819H234.248C233.72 228.467 232.632 229.235 231.032 229.235C228.76 229.235 227.352 227.571 227.352 224.899C227.352 222.227 228.76 220.563 231.032 220.563C232.6 220.563 233.672 221.299 234.232 222.851H235.864C235.208 220.531 233.464 219.123 231.032 219.123C227.896 219.123 225.8 221.491 225.8 224.883C225.8 228.355 227.864 230.675 231 230.675ZM240.712 230.675C242.952 230.675 244.424 229.059 244.424 226.563C244.424 224.083 242.952 222.467 240.712 222.467C238.472 222.467 236.984 224.083 236.984 226.563C236.984 229.059 238.472 230.675 240.712 230.675ZM240.712 229.331C239.304 229.331 238.488 228.371 238.488 226.563C238.488 224.755 239.304 223.811 240.712 223.811C242.104 223.811 242.92 224.755 242.92 226.563C242.92 228.371 242.104 229.331 240.712 229.331ZM246.263 230.499H247.751V226.387C247.751 224.787 248.327 223.827 249.751 223.827C250.871 223.827 251.335 224.419 251.335 225.827V230.499H252.823V225.699C252.823 223.491 251.911 222.467 250.087 222.467C248.999 222.467 248.295 222.819 247.687 223.667V222.643H246.263V230.499ZM257.49 230.627C257.842 230.627 258.194 230.579 258.546 230.499V229.187C258.306 229.235 258.13 229.267 257.858 229.267C257.01 229.267 256.85 228.899 256.85 228.227V223.987H258.546V222.643H256.85V220.339H255.362V222.643H254.226V223.987H255.362V228.547C255.362 229.827 255.906 230.627 257.49 230.627ZM260.075 230.499H261.563V226.755C261.563 224.915 262.203 223.987 263.531 223.987C263.739 223.987 263.867 224.003 264.107 224.035V222.627C263.947 222.579 263.739 222.563 263.579 222.563C262.683 222.563 261.931 223.011 261.499 223.971V222.643H260.075V230.499ZM267.563 230.675C268.715 230.675 269.419 230.371 270.107 229.411V230.499H271.547V225.635C271.547 223.363 270.459 222.467 268.427 222.467C266.635 222.467 265.291 223.347 265.163 225.027H266.651C266.779 224.131 267.323 223.747 268.395 223.747C269.451 223.747 270.059 224.131 270.059 225.395V225.683L267.963 226.051C266.315 226.339 264.971 226.883 264.971 228.467C264.971 229.907 265.947 230.675 267.563 230.675ZM267.931 229.411C266.891 229.411 266.443 229.075 266.443 228.387C266.443 227.539 267.211 227.379 268.411 227.171L270.059 226.883V227.507C270.059 228.659 269.067 229.411 267.931 229.411ZM276.976 230.675C278.752 230.675 280.08 229.635 280.448 227.859H278.928C278.624 228.915 277.936 229.331 276.976 229.331C275.6 229.331 274.768 228.355 274.768 226.563C274.768 224.771 275.6 223.811 276.976 223.811C277.92 223.811 278.592 224.243 278.912 225.171H280.432C280.064 223.443 278.72 222.467 276.976 222.467C274.752 222.467 273.296 224.083 273.296 226.563C273.296 229.059 274.752 230.675 276.976 230.675ZM284.474 230.627C284.826 230.627 285.178 230.579 285.53 230.499V229.187C285.29 229.235 285.114 229.267 284.842 229.267C283.994 229.267 283.834 228.899 283.834 228.227V223.987H285.53V222.643H283.834V220.339H282.346V222.643H281.21V223.987H282.346V228.547C282.346 229.827 282.89 230.627 284.474 230.627Z" fill="#6A7077"/>
<rect x="225" y="239.499" width="100" height="36" rx="18" fill="#F3F6F9"/>
<rect opacity="0.1" x="237" y="251.499" width="56" height="12" rx="4" fill="#001F35"/>
<rect opacity="0.1" x="301" y="251.499" width="12" height="12" rx="6" fill="#001F35"/>
<rect x="341" y="239.499" width="100" height="36" rx="18" fill="#F3F6F9"/>
<rect opacity="0.1" x="353" y="251.499" width="56" height="12" rx="4" fill="#001F35"/>
<rect opacity="0.1" x="417" y="251.499" width="12" height="12" rx="6" fill="#001F35"/>
<path d="M236.552 308.499L235.096 306.867C235.928 305.859 236.392 304.483 236.392 302.883C236.392 299.459 234.28 297.123 231.112 297.123C227.928 297.123 225.8 299.491 225.8 302.883C225.8 306.339 227.912 308.675 231.096 308.675C232.296 308.675 233.336 308.339 234.184 307.747L234.856 308.499H236.552ZM231.096 307.235C228.792 307.235 227.352 305.571 227.352 302.899C227.352 300.227 228.792 298.563 231.096 298.563C233.416 298.563 234.84 300.227 234.84 302.899C234.84 304.051 234.584 305.011 234.088 305.731L232.888 304.387H231.192L233.192 306.643C232.632 307.027 231.912 307.235 231.096 307.235ZM241.027 308.659C242.099 308.659 242.803 308.307 243.363 307.443V308.499H244.787V300.643H243.299V304.739C243.299 306.339 242.723 307.299 241.379 307.299C240.259 307.299 239.795 306.707 239.795 305.299V300.643H238.307V305.427C238.307 307.635 239.219 308.659 241.027 308.659ZM249.344 308.675C250.496 308.675 251.2 308.371 251.888 307.411V308.499H253.328V303.635C253.328 301.363 252.24 300.467 250.208 300.467C248.416 300.467 247.072 301.347 246.944 303.027H248.432C248.56 302.131 249.104 301.747 250.176 301.747C251.232 301.747 251.84 302.131 251.84 303.395V303.683L249.744 304.051C248.096 304.339 246.752 304.883 246.752 306.467C246.752 307.907 247.728 308.675 249.344 308.675ZM249.712 307.411C248.672 307.411 248.224 307.075 248.224 306.387C248.224 305.539 248.992 305.379 250.192 305.171L251.84 304.883V305.507C251.84 306.659 250.848 307.411 249.712 307.411ZM255.638 308.499H257.126V304.755C257.126 302.915 257.766 301.987 259.094 301.987C259.302 301.987 259.43 302.003 259.67 302.035V300.627C259.51 300.579 259.302 300.563 259.141 300.563C258.246 300.563 257.494 301.011 257.062 301.971V300.643H255.638V308.499ZM263.724 308.627C264.076 308.627 264.428 308.579 264.78 308.499V307.187C264.54 307.235 264.364 307.267 264.092 307.267C263.244 307.267 263.084 306.899 263.084 306.227V301.987H264.78V300.643H263.084V298.339H261.596V300.643H260.46V301.987H261.596V306.547C261.596 307.827 262.14 308.627 263.724 308.627ZM271.319 306.211C270.983 307.011 270.439 307.363 269.463 307.363C268.183 307.363 267.287 306.547 267.207 304.851H272.807V304.323C272.807 302.083 271.463 300.467 269.335 300.467C267.335 300.467 265.687 301.875 265.687 304.563C265.687 307.059 267.223 308.675 269.463 308.675C270.935 308.675 272.279 307.971 272.855 306.211H271.319ZM269.335 301.747C270.471 301.747 271.159 302.387 271.255 303.731H267.255C267.463 302.371 268.231 301.747 269.335 301.747ZM274.669 308.499H276.157V304.755C276.157 302.915 276.797 301.987 278.125 301.987C278.333 301.987 278.461 302.003 278.701 302.035V300.627C278.541 300.579 278.333 300.563 278.173 300.563C277.277 300.563 276.525 301.011 276.093 301.971V300.643H274.669V308.499Z" fill="#6A7077"/>
<rect x="225" y="317.499" width="240" height="36" rx="4" fill="#F3F6F9"/>
<rect opacity="0.1" x="237" y="329.499" width="76" height="12" rx="4" fill="#001F35"/>
</g>
<defs>
<filter id="filter0_d" x="0" y="0.498901" width="377.367" height="221.754" filterUnits="userSpaceOnUse" color-interpolation-filters="sRGB">
<feFlood flood-opacity="0" result="BackgroundImageFix"/>
<feColorMatrix in="SourceAlpha" type="matrix" values="0 0 0 0 0 0 0 0 0 0 0 0 0 0 0 0 0 0 127 0"/>
<feOffset dy="4"/>
<feGaussianBlur stdDeviation="5"/>
<feColorMatrix type="matrix" values="0 0 0 0 0 0 0 0 0 0 0 0 0 0 0 0 0 0 0.1 0"/>
<feBlend mode="normal" in2="BackgroundImageFix" result="effect1_dropShadow"/>
<feBlend mode="normal" in="SourceGraphic" in2="effect1_dropShadow" result="shape"/>
</filter>
<filter id="filter1_d" x="0" y="0.498901" width="377.367" height="221.754" filterUnits="userSpaceOnUse" color-interpolation-filters="sRGB">
<feFlood flood-opacity="0" result="BackgroundImageFix"/>
<feColorMatrix in="SourceAlpha" type="matrix" values="0 0 0 0 0 0 0 0 0 0 0 0 0 0 0 0 0 0 127 0"/>
<feOffset dy="4"/>
<feGaussianBlur stdDeviation="5"/>
<feColorMatrix type="matrix" values="0 0 0 0 0 0 0 0 0 0 0 0 0 0 0 0 0 0 0.05 0"/>
<feBlend mode="normal" in2="BackgroundImageFix" result="effect1_dropShadow"/>
<feBlend mode="normal" in="SourceGraphic" in2="effect1_dropShadow" result="shape"/>
</filter>
<filter id="filter2_d" x="199" y="67.4989" width="308" height="337" filterUnits="userSpaceOnUse" color-interpolation-filters="sRGB">
<feFlood flood-opacity="0" result="BackgroundImageFix"/>
<feColorMatrix in="SourceAlpha" type="matrix" values="0 0 0 0 0 0 0 0 0 0 0 0 0 0 0 0 0 0 127 0"/>
<feOffset dy="4"/>
<feGaussianBlur stdDeviation="5"/>
<feColorMatrix type="matrix" values="0 0 0 0 0 0 0 0 0 0 0 0 0 0 0 0 0 0 0.1 0"/>
<feBlend mode="normal" in2="BackgroundImageFix" result="effect1_dropShadow"/>
<feBlend mode="normal" in="SourceGraphic" in2="effect1_dropShadow" result="shape"/>
</filter>
<filter id="filter3_d" x="198" y="66" width="294" height="323" filterUnits="userSpaceOnUse" color-interpolation-filters="sRGB">
<feFlood flood-opacity="0" result="BackgroundImageFix"/>
<feColorMatrix in="SourceAlpha" type="matrix" values="0 0 0 0 0 0 0 0 0 0 0 0 0 0 0 0 0 0 127 0"/>
<feOffset dy="4"/>
<feGaussianBlur stdDeviation="5"/>
<feColorMatrix type="matrix" values="0 0 0 0 0 0 0 0 0 0 0 0 0 0 0 0 0 0 0.05 0"/>
<feBlend mode="normal" in2="BackgroundImageFix" result="effect1_dropShadow"/>
<feBlend mode="normal" in="SourceGraphic" in2="effect1_dropShadow" result="shape"/>
</filter>
<clipPath id="clip0">
<rect width="288" height="317" fill="white" transform="translate(209 73.4989)"/>
</clipPath>
</defs>
</svg>
