<svg width="572" height="365" viewBox="0 0 572 365" fill="none" xmlns="http://www.w3.org/2000/svg">
<g clip-path="url(#clip0)">
<path d="M568.796 1.10413H4.37378C3.00777 1.10413 1.90039 2.24263 1.90039 3.64704V360.987C1.90039 362.391 3.00777 363.53 4.37378 363.53H568.796C570.162 363.53 571.269 362.391 571.269 360.987V3.64704C571.269 2.24263 570.162 1.10413 568.796 1.10413Z" fill="white"/>
<path d="M570.505 1.89007H1.54688V24.8744H570.505V1.89007Z" fill="#DFE5EC"/>
<path d="M14.9604 17.9791C17.4298 17.9791 19.4316 15.921 19.4316 13.3822C19.4316 10.8434 17.4298 8.78533 14.9604 8.78533C12.4911 8.78533 10.4893 10.8434 10.4893 13.3822C10.4893 15.921 12.4911 17.9791 14.9604 17.9791Z" fill="#8995A3"/>
<path d="M28.3735 17.9791C30.8429 17.9791 32.8447 15.921 32.8447 13.3822C32.8447 10.8434 30.8429 8.78533 28.3735 8.78533C25.9042 8.78533 23.9023 10.8434 23.9023 13.3822C23.9023 15.921 25.9042 17.9791 28.3735 17.9791Z" fill="#8995A3"/>
<path d="M41.7876 17.9791C44.257 17.9791 46.2588 15.921 46.2588 13.3822C46.2588 10.8434 44.257 8.78533 41.7876 8.78533C39.3182 8.78533 37.3164 10.8434 37.3164 13.3822C37.3164 15.921 39.3182 17.9791 41.7876 17.9791Z" fill="#8995A3"/>
<path d="M137.359 24.2997H2.10547V364.468H137.359V24.2997Z" fill="#F7F9FB" stroke="#DFE5EC" stroke-width="1.58175"/>
<path d="M70.8506 34.0681H12.7252C12.1079 34.0681 11.6074 34.5826 11.6074 35.2173V42.1126C11.6074 42.7473 12.1079 43.2618 12.7252 43.2618H70.8506C71.4679 43.2618 71.9684 42.7473 71.9684 42.1126V35.2173C71.9684 34.5826 71.4679 34.0681 70.8506 34.0681Z" fill="#DFE5EC"/>
<path d="M216.164 34.0681H158.039C157.421 34.0681 156.921 34.5826 156.921 35.2173V42.1126C156.921 42.7473 157.421 43.2618 158.039 43.2618H216.164C216.781 43.2618 217.282 42.7473 217.282 42.1126V35.2173C217.282 34.5826 216.781 34.0681 216.164 34.0681Z" fill="#DFE5EC"/>
<path d="M551.502 34.0681H530.264C529.647 34.0681 529.146 34.5826 529.146 35.2173V42.1126C529.146 42.7473 529.647 43.2618 530.264 43.2618H551.502C552.12 43.2618 552.62 42.7473 552.62 42.1126V35.2173C552.62 34.5826 552.12 34.0681 551.502 34.0681Z" fill="#DFE5EC"/>
<path d="M97.6774 49.0079H12.7252C12.1079 49.0079 11.6074 49.5224 11.6074 50.1571V57.0524C11.6074 57.6871 12.1079 58.2016 12.7252 58.2016H97.6774C98.2947 58.2016 98.7952 57.6871 98.7952 57.0524V50.1571C98.7952 49.5224 98.2947 49.0079 97.6774 49.0079Z" fill="#DFE5EC"/>
<path opacity="0.5" d="M70.8506 94.9762H12.7252C12.1079 94.9762 11.6074 95.4907 11.6074 96.1254V103.021C11.6074 103.655 12.1079 104.17 12.7252 104.17H70.8506C71.4679 104.17 71.9684 103.655 71.9684 103.021V96.1254C71.9684 95.4907 71.4679 94.9762 70.8506 94.9762Z" fill="#DFE5EC"/>
<path opacity="0.5" d="M77.5573 111.066H12.7252C12.1079 111.066 11.6074 111.58 11.6074 112.215V119.11C11.6074 119.745 12.1079 120.259 12.7252 120.259H77.5573C78.1747 120.259 78.6751 119.745 78.6751 119.11V112.215C78.6751 111.58 78.1747 111.066 77.5573 111.066Z" fill="#DFE5EC"/>
<path opacity="0.5" d="M70.8506 127.154H12.7252C12.1079 127.154 11.6074 127.669 11.6074 128.303V135.199C11.6074 135.833 12.1079 136.348 12.7252 136.348H70.8506C71.4679 136.348 71.9684 135.833 71.9684 135.199V128.303C71.9684 127.669 71.4679 127.154 70.8506 127.154Z" fill="#DFE5EC"/>
<path opacity="0.5" d="M83.1466 143.244H12.7252C12.1079 143.244 11.6074 143.758 11.6074 144.393V151.288C11.6074 151.923 12.1079 152.437 12.7252 152.437H83.1466C83.7639 152.437 84.2643 151.923 84.2643 151.288V144.393C84.2643 143.758 83.7639 143.244 83.1466 143.244Z" fill="#DFE5EC"/>
<path opacity="0.5" d="M56.3192 159.332H12.7252C12.1079 159.332 11.6074 159.847 11.6074 160.481V167.377C11.6074 168.011 12.1079 168.526 12.7252 168.526H56.3192C56.9366 168.526 57.437 168.011 57.437 167.377V160.481C57.437 159.847 56.9366 159.332 56.3192 159.332Z" fill="#DFE5EC"/>
<path d="M201.633 227.137H158.039C157.421 227.137 156.921 227.651 156.921 228.286V235.181C156.921 235.816 157.421 236.33 158.039 236.33H201.633C202.25 236.33 202.751 235.816 202.751 235.181V228.286C202.751 227.651 202.25 227.137 201.633 227.137Z" fill="#DFE5EC"/>
<path opacity="0.5" d="M201.633 265.06H158.039C157.421 265.06 156.921 265.575 156.921 266.209V273.105C156.921 273.739 157.421 274.254 158.039 274.254H201.633C202.25 274.254 202.751 273.739 202.751 273.105V266.209C202.751 265.575 202.25 265.06 201.633 265.06Z" fill="#DFE5EC"/>
<path opacity="0.5" d="M201.633 302.984H158.039C157.421 302.984 156.921 303.499 156.921 304.134V311.029C156.921 311.664 157.421 312.178 158.039 312.178H201.633C202.25 312.178 202.751 311.664 202.751 311.029V304.134C202.751 303.499 202.25 302.984 201.633 302.984Z" fill="#DFE5EC"/>
<path d="M201.633 340.909H158.039C157.421 340.909 156.921 341.423 156.921 342.058V348.953C156.921 349.588 157.421 350.102 158.039 350.102H201.633C202.25 350.102 202.751 349.588 202.751 348.953V342.058C202.751 341.423 202.25 340.909 201.633 340.909Z" fill="#20DFAC"/>
<path d="M288.82 227.137H245.226C244.609 227.137 244.108 227.651 244.108 228.286V235.181C244.108 235.816 244.609 236.33 245.226 236.33H288.82C289.438 236.33 289.938 235.816 289.938 235.181V228.286C289.938 227.651 289.438 227.137 288.82 227.137Z" fill="#DFE5EC"/>
<path d="M288.82 265.06H245.226C244.609 265.06 244.108 265.575 244.108 266.209V273.105C244.108 273.739 244.609 274.254 245.226 274.254H288.82C289.438 274.254 289.938 273.739 289.938 273.105V266.209C289.938 265.575 289.438 265.06 288.82 265.06Z" fill="#20DFAC"/>
<path d="M288.82 302.984H245.226C244.609 302.984 244.108 303.499 244.108 304.134V311.029C244.108 311.664 244.609 312.178 245.226 312.178H288.82C289.438 312.178 289.938 311.664 289.938 311.029V304.134C289.938 303.499 289.438 302.984 288.82 302.984Z" fill="#20DFAC"/>
<path opacity="0.5" d="M288.82 340.909H245.226C244.609 340.909 244.108 341.423 244.108 342.058V348.953C244.108 349.588 244.609 350.102 245.226 350.102H288.82C289.438 350.102 289.938 349.588 289.938 348.953V342.058C289.938 341.423 289.438 340.909 288.82 340.909Z" fill="#DFE5EC"/>
<path d="M376.009 227.137H332.415C331.797 227.137 331.297 227.651 331.297 228.286V235.181C331.297 235.816 331.797 236.33 332.415 236.33H376.009C376.626 236.33 377.127 235.816 377.127 235.181V228.286C377.127 227.651 376.626 227.137 376.009 227.137Z" fill="#DFE5EC"/>
<path opacity="0.5" d="M376.009 265.06H332.415C331.797 265.06 331.297 265.575 331.297 266.209V273.105C331.297 273.739 331.797 274.254 332.415 274.254H376.009C376.626 274.254 377.127 273.739 377.127 273.105V266.209C377.127 265.575 376.626 265.06 376.009 265.06Z" fill="#DFE5EC"/>
<path opacity="0.5" d="M376.009 302.984H332.415C331.797 302.984 331.297 303.499 331.297 304.134V311.029C331.297 311.664 331.797 312.178 332.415 312.178H376.009C376.626 312.178 377.127 311.664 377.127 311.029V304.134C377.127 303.499 376.626 302.984 376.009 302.984Z" fill="#DFE5EC"/>
<path opacity="0.5" d="M376.009 340.909H332.415C331.797 340.909 331.297 341.423 331.297 342.058V348.953C331.297 349.588 331.797 350.102 332.415 350.102H376.009C376.626 350.102 377.127 349.588 377.127 348.953V342.058C377.127 341.423 376.626 340.909 376.009 340.909Z" fill="#DFE5EC"/>
<path d="M463.196 227.137H419.602C418.985 227.137 418.484 227.651 418.484 228.286V235.181C418.484 235.816 418.985 236.33 419.602 236.33H463.196C463.814 236.33 464.314 235.816 464.314 235.181V228.286C464.314 227.651 463.814 227.137 463.196 227.137Z" fill="#DFE5EC"/>
<path opacity="0.5" d="M463.196 265.06H419.602C418.985 265.06 418.484 265.575 418.484 266.209V273.105C418.484 273.739 418.985 274.254 419.602 274.254H463.196C463.814 274.254 464.314 273.739 464.314 273.105V266.209C464.314 265.575 463.814 265.06 463.196 265.06Z" fill="#DFE5EC"/>
<path d="M463.196 302.984H419.602C418.985 302.984 418.484 303.499 418.484 304.134V311.029C418.484 311.664 418.985 312.178 419.602 312.178H463.196C463.814 312.178 464.314 311.664 464.314 311.029V304.134C464.314 303.499 463.814 302.984 463.196 302.984Z" fill="#20DFAC"/>
<path opacity="0.5" d="M463.196 340.909H419.602C418.985 340.909 418.484 341.423 418.484 342.058V348.953C418.484 349.588 418.985 350.102 419.602 350.102H463.196C463.814 350.102 464.314 349.588 464.314 348.953V342.058C464.314 341.423 463.814 340.909 463.196 340.909Z" fill="#DFE5EC"/>
<path d="M550.385 227.137H506.791C506.173 227.137 505.673 227.651 505.673 228.286V235.181C505.673 235.816 506.173 236.33 506.791 236.33H550.385C551.002 236.33 551.502 235.816 551.502 235.181V228.286C551.502 227.651 551.002 227.137 550.385 227.137Z" fill="#DFE5EC"/>
<path opacity="0.5" d="M550.385 265.06H506.791C506.173 265.06 505.673 265.575 505.673 266.209V273.105C505.673 273.739 506.173 274.254 506.791 274.254H550.385C551.002 274.254 551.502 273.739 551.502 273.105V266.209C551.502 265.575 551.002 265.06 550.385 265.06Z" fill="#DFE5EC"/>
<path opacity="0.5" d="M550.385 302.984H506.791C506.173 302.984 505.673 303.499 505.673 304.134V311.029C505.673 311.664 506.173 312.178 506.791 312.178H550.385C551.002 312.178 551.502 311.664 551.502 311.029V304.134C551.502 303.499 551.002 302.984 550.385 302.984Z" fill="#DFE5EC"/>
<path opacity="0.5" d="M550.385 340.909H506.791C506.173 340.909 505.673 341.423 505.673 342.058V348.953C505.673 349.588 506.173 350.102 506.791 350.102H550.385C551.002 350.102 551.502 349.588 551.502 348.953V342.058C551.502 341.423 551.002 340.909 550.385 340.909Z" fill="#DFE5EC"/>
<path d="M23.9029 352.4C29.459 352.4 33.963 347.77 33.963 342.057C33.963 336.345 29.459 331.714 23.9029 331.714C18.3468 331.714 13.8428 336.345 13.8428 342.057C13.8428 347.77 18.3468 352.4 23.9029 352.4Z" fill="#DFE5EC"/>
<path d="M571.622 213.346H136.8V214.495H571.622V213.346Z" fill="#DFE5EC"/>
<path d="M571.622 250.121H136.8V251.27H571.622V250.121Z" fill="#DFE5EC"/>
<path d="M571.622 288.044H136.8V289.194H571.622V288.044Z" fill="#DFE5EC"/>
<path d="M571.622 325.969H136.8V327.118H571.622V325.969Z" fill="#DFE5EC"/>
<path d="M174.806 68.5445H156.921V213.345H174.806V68.5445Z" fill="#FFE7B9"/>
<path d="M203.868 155.885H185.983V213.346H203.868V155.885Z" fill="#FFE7B9"/>
<path d="M232.931 94.9762H215.046V213.345H232.931V94.9762Z" fill="#FFE7B9"/>
<path d="M261.993 115.662H244.108V213.346H261.993V115.662Z" fill="#FFE7B9"/>
<path d="M291.057 82.335H273.172V213.345H291.057V82.335Z" fill="#FFE7B9"/>
<path d="M320.119 165.078H302.234V213.346H320.119V165.078Z" fill="#FFE7B9"/>
<path d="M349.182 104.17H331.297V213.345H349.182V104.17Z" fill="#FFE7B9"/>
<path d="M378.244 146.691H360.359V213.345H378.244V146.691Z" fill="#FFE7B9"/>
<path d="M407.307 73.1413H389.422V213.345H407.307V73.1413Z" fill="#FFE7B9"/>
<path d="M436.369 68.5445H418.484V213.345H436.369V68.5445Z" fill="#FFE7B9"/>
<path d="M465.433 89.2306H447.548V213.346H465.433V89.2306Z" fill="#FFE7B9"/>
<path d="M494.495 120.259H476.61V213.346H494.495V120.259Z" fill="#FFE7B9"/>
<path d="M523.559 182.317H505.674V213.345H523.559V182.317Z" fill="#FFE7B9"/>
<path d="M552.62 94.9762H534.735V213.345H552.62V94.9762Z" fill="#FFE7B9"/>
<path d="M568.796 1.10413H4.37378C3.00777 1.10413 1.90039 2.24263 1.90039 3.64704V360.987C1.90039 362.391 3.00777 363.53 4.37378 363.53H568.796C570.162 363.53 571.269 362.391 571.269 360.987V3.64704C571.269 2.24263 570.162 1.10413 568.796 1.10413Z" stroke="#DFE5EC"/>
</g>
<defs>
<clipPath id="clip0">
<rect width="571" height="364" fill="white" transform="translate(0.888672 0.184326)"/>
</clipPath>
</defs>
</svg>
