<svg width="107" height="40" viewBox="0 0 107 40" fill="none" xmlns="http://www.w3.org/2000/svg">
<path fill-rule="evenodd" clip-rule="evenodd" d="M31.6542 2.69709C32.3273 2.69709 32.8743 3.24693 32.8743 3.92351V36.0765C32.8743 36.753 32.3273 37.3029 31.6542 37.3029H4.81255C4.13948 37.3029 3.59248 36.753 3.59248 36.0765V3.92351C3.59248 3.24693 4.13948 2.69709 4.81255 2.69709H31.6542ZM4.79718 0.567505C2.95463 0.567505 1.46289 2.06655 1.46289 3.90996V36.09C1.46289 37.9334 2.95463 39.4325 4.79718 39.4325H31.6696C33.5121 39.4325 35.0039 37.9334 35.0039 36.09V3.90996C35.0039 2.06655 33.5121 0.567505 31.6696 0.567505H4.79718Z" fill="#001F35"/>
<path fill-rule="evenodd" clip-rule="evenodd" d="M13.4422 10.8161H23.0244C23.6124 10.8161 24.0897 10.3394 24.0897 9.75132C24.0897 9.16444 23.6127 8.68652 23.0244 8.68652H13.4422C12.8543 8.68652 12.377 9.16325 12.377 9.75132C12.377 10.3382 12.8539 10.8161 13.4422 10.8161Z" fill="#001F35"/>
<path fill-rule="evenodd" clip-rule="evenodd" d="M13.4422 17.471H23.0244C23.6124 17.471 24.0897 16.9943 24.0897 16.4062C24.0897 15.8194 23.6127 15.3414 23.0244 15.3414H13.4422C12.8543 15.3414 12.377 15.8182 12.377 16.4062C12.377 16.9931 12.8539 17.471 13.4422 17.471Z" fill="#001F35"/>
<path fill-rule="evenodd" clip-rule="evenodd" d="M13.5757 24.3923H19.9622C20.5519 24.3923 21.0281 23.9156 21.0281 23.3275C21.0281 22.7406 20.5509 22.2627 19.9622 22.2627H13.5757C12.986 22.2627 12.5098 22.7394 12.5098 23.3275C12.5098 23.9144 12.987 24.3923 13.5757 24.3923Z" fill="#001F35"/>
<path fill-rule="evenodd" clip-rule="evenodd" d="M13.4422 31.3134H23.0244C23.6124 31.3134 24.0897 30.8367 24.0897 30.2486C24.0897 29.6618 23.6127 29.1838 23.0244 29.1838H13.4422C12.8543 29.1838 12.377 29.6606 12.377 30.2486C12.377 30.8355 12.8539 31.3134 13.4422 31.3134Z" fill="#001F35"/>
<path fill-rule="evenodd" clip-rule="evenodd" d="M12.377 30.2483C12.377 30.8353 12.8537 31.3133 13.4417 31.3133C14.0286 31.3133 14.5065 30.8365 14.5065 30.2483V16.4064C14.5065 15.8194 14.0298 15.3414 13.4417 15.3414C12.8549 15.3414 12.377 15.8182 12.377 16.4064V30.2483Z" fill="#001F35"/>
<path fill-rule="evenodd" clip-rule="evenodd" d="M54.4748 10.3378C54.7184 10.3378 54.8948 10.3483 55.004 10.3694C55.1131 10.3905 55.2139 10.4306 55.3063 10.4897C55.5499 10.65 55.6717 10.8862 55.6717 11.1984C55.6717 11.5106 55.5499 11.7469 55.3063 11.9072C55.2139 11.9663 55.1131 12.0064 55.004 12.0275C54.8948 12.0486 54.7184 12.0591 54.4748 12.0591H46.3738V18.4128H51.3076C51.5512 18.4128 51.7276 18.4234 51.8368 18.4445C51.946 18.4656 52.0468 18.5057 52.1392 18.5647C52.3827 18.725 52.5045 18.9613 52.5045 19.2735C52.5045 19.5857 52.3827 19.822 52.1392 19.9823C52.0468 20.0414 51.946 20.0814 51.8368 20.1025C51.7276 20.1236 51.5512 20.1342 51.3076 20.1342H46.3738V26.6398H54.4748C54.7184 26.6398 54.8948 26.6503 55.004 26.6714C55.1131 26.6925 55.2139 26.7326 55.3063 26.7917C55.5499 26.952 55.6717 27.1882 55.6717 27.5004C55.6717 27.8127 55.5499 28.0489 55.3063 28.2092C55.2139 28.2683 55.1131 28.3084 55.004 28.3295C54.8948 28.3506 54.7184 28.3611 54.4748 28.3611H45.6053C45.4541 28.3611 45.2987 28.3506 45.1391 28.3295C44.9795 28.3084 44.8326 28.2303 44.6982 28.0953C44.5638 27.9603 44.4861 27.8127 44.4651 27.6523C44.4441 27.492 44.4336 27.3359 44.4336 27.184V11.5149C44.4336 11.363 44.4441 11.2069 44.4651 11.0466C44.4861 10.8862 44.5638 10.7386 44.6982 10.6036C44.8326 10.4686 44.9795 10.3905 45.1391 10.3694C45.2987 10.3483 45.4541 10.3378 45.6053 10.3378H54.4748ZM68.394 27.1193C68.394 27.3474 68.3834 27.5184 68.3621 27.6325C68.3407 27.7465 68.296 27.8585 68.2277 27.9683C68.1595 28.0866 68.0572 28.1816 67.9207 28.2534C67.7842 28.3252 67.6307 28.3611 67.4601 28.3611C67.2896 28.3611 67.1361 28.3252 66.9996 28.2534C66.8631 28.1816 66.7608 28.0866 66.6926 27.9683C66.6243 27.8585 66.5796 27.7465 66.5582 27.6325C66.5369 27.5184 66.5262 27.3474 66.5262 27.1193V20.606C66.5262 19.4909 66.2533 18.6588 65.7075 18.1097C65.1616 17.5606 64.4069 17.2861 63.4431 17.2861C62.9655 17.2861 62.5327 17.3558 62.1446 17.4952C61.7565 17.6345 61.4261 17.8436 61.1531 18.1224C60.8802 18.4012 60.6691 18.7475 60.5199 19.1615C60.3706 19.5754 60.296 20.0569 60.296 20.606V27.1193C60.296 27.3474 60.2853 27.5184 60.264 27.6325C60.2427 27.7465 60.1979 27.8585 60.1297 27.9683C60.0614 28.0866 59.9591 28.1816 59.8226 28.2534C59.6862 28.3252 59.5327 28.3611 59.3621 28.3611C59.1915 28.3611 59.038 28.3252 58.9015 28.2534C58.7651 28.1816 58.6627 28.0866 58.5945 27.9683C58.5263 27.8585 58.4815 27.7465 58.4602 27.6325C58.4389 27.5184 58.4282 27.3474 58.4282 27.1193V16.9313C58.4282 16.7116 58.4389 16.5448 58.4602 16.4307C58.4815 16.3167 58.5263 16.2005 58.5945 16.0823C58.6627 15.964 58.7651 15.869 58.9015 15.7971C59.038 15.7253 59.1915 15.6894 59.3621 15.6894C59.5327 15.6894 59.6862 15.7253 59.8226 15.7971C59.9591 15.869 60.0615 15.964 60.1297 16.0823C60.1979 16.2005 60.2427 16.3167 60.264 16.4307C60.2853 16.5448 60.296 16.7116 60.296 16.9313V17.1594C60.7565 16.6525 61.2853 16.2723 61.8823 16.0189C62.4794 15.7655 63.1275 15.6388 63.8269 15.6388C64.5177 15.6388 65.1361 15.738 65.6819 15.9365C66.2277 16.1351 66.6968 16.4244 67.0891 16.8045C67.5412 17.2354 67.8717 17.7422 68.0806 18.3251C68.2896 18.908 68.394 19.5627 68.394 20.2893L68.394 27.1193ZM77.244 27.2415C77.1672 27.4621 77.0903 27.6423 77.0135 27.7822C76.9367 27.9222 76.8385 28.0388 76.719 28.1321C76.5226 28.2848 76.2921 28.3611 76.0275 28.3611C75.7543 28.3611 75.5238 28.2848 75.336 28.1321C75.2165 28.0388 75.1183 27.9222 75.0414 27.7822C74.9646 27.6423 74.8878 27.4621 74.811 27.2415L71.2766 17.0891C71.2083 16.894 71.1678 16.7265 71.155 16.5866C71.1422 16.4466 71.1571 16.313 71.1998 16.1858C71.2596 16.0247 71.3705 15.8932 71.5328 15.7914C71.695 15.6896 71.8657 15.6388 72.045 15.6388C72.3182 15.6388 72.5188 15.7257 72.6468 15.8996C72.7749 16.0734 72.8816 16.2834 72.967 16.5293L76.0275 25.6385L79.088 16.5293C79.1733 16.2834 79.28 16.0734 79.4081 15.8996C79.5362 15.7257 79.7368 15.6388 80.01 15.6388C80.1892 15.6388 80.36 15.6896 80.5222 15.7914C80.6844 15.8932 80.7954 16.0247 80.8551 16.1858C80.8978 16.313 80.9127 16.4466 80.8999 16.5866C80.8871 16.7265 80.8466 16.894 80.7783 17.0891L77.244 27.2415ZM88.5378 26.7708C89.4465 26.7708 90.2023 26.4689 90.8053 25.8651C91.0261 25.644 91.2023 25.3868 91.334 25.0934C91.4656 24.8 91.5675 24.4853 91.6397 24.1494C91.7119 23.8135 91.7607 23.4627 91.7862 23.097C91.8117 22.7313 91.8244 22.3656 91.8244 21.9999C91.8244 21.6342 91.8117 21.2707 91.7862 20.9093C91.7607 20.5478 91.7119 20.1992 91.6397 19.8632C91.5675 19.5273 91.4656 19.2127 91.334 18.9193C91.2023 18.6259 91.0261 18.3686 90.8053 18.1475C90.4996 17.8414 90.162 17.6117 89.7926 17.4587C89.4231 17.3056 89.0049 17.229 88.5378 17.229C88.0707 17.229 87.6524 17.3056 87.283 17.4587C86.9136 17.6117 86.576 17.8414 86.2703 18.1475C86.0495 18.3686 85.8733 18.6259 85.7416 18.9193C85.61 19.2127 85.5081 19.5273 85.4359 19.8632C85.3637 20.1992 85.3149 20.5478 85.2894 20.9093C85.2639 21.2707 85.2512 21.6342 85.2512 21.9999C85.2512 22.3656 85.2639 22.7313 85.2894 23.097C85.3149 23.4627 85.3637 23.8135 85.4359 24.1494C85.5081 24.4853 85.61 24.8 85.7416 25.0934C85.8733 25.3868 86.0495 25.644 86.2703 25.8651C86.8733 26.4689 87.6291 26.7708 88.5378 26.7708ZM90.5721 16.0237C91.1641 16.2803 91.6743 16.6232 92.1026 17.0523C92.4217 17.3805 92.682 17.7339 92.8836 18.1125C93.0851 18.4912 93.2404 18.8888 93.3496 19.3053C93.4588 19.7218 93.5323 20.1551 93.57 20.6053C93.6078 21.0554 93.6267 21.5203 93.6267 21.9999C93.6267 22.4795 93.6078 22.9444 93.57 23.3946C93.5323 23.8448 93.4588 24.2781 93.3496 24.6946C93.2404 25.1111 93.0851 25.5087 92.8836 25.8873C92.682 26.266 92.4217 26.6194 92.1026 26.9475C91.6743 27.3766 91.1641 27.7195 90.5721 27.9762C89.9801 28.2328 89.302 28.3611 88.5378 28.3611C87.7736 28.3611 87.0955 28.2328 86.5035 27.9762C85.9114 27.7195 85.4013 27.3766 84.973 26.9475C84.6539 26.6194 84.3936 26.266 84.192 25.8873C83.9905 25.5087 83.8351 25.1111 83.726 24.6946C83.6168 24.2781 83.5433 23.8448 83.5055 23.3946C83.4677 22.9444 83.4488 22.4795 83.4488 21.9999C83.4488 21.5203 83.4677 21.0554 83.5055 20.6053C83.5433 20.1551 83.6168 19.7218 83.726 19.3053C83.8351 18.8888 83.9905 18.4912 84.192 18.1125C84.3936 17.7339 84.6539 17.3805 84.973 17.0523C85.4013 16.6232 85.9114 16.2803 86.5035 16.0237C87.0955 15.7671 87.7736 15.6388 88.5378 15.6388C89.302 15.6388 89.9801 15.7671 90.5721 16.0237ZM104.106 16.531C104.192 16.2846 104.299 16.0743 104.427 15.9001C104.555 15.7259 104.756 15.6388 105.029 15.6388C105.209 15.6388 105.38 15.6897 105.542 15.7917C105.705 15.8937 105.816 16.0254 105.876 16.1868C105.918 16.3143 105.933 16.4481 105.921 16.5884C105.908 16.7286 105.867 16.8964 105.799 17.0918L100.849 31.304C100.747 31.6014 100.621 31.8797 100.471 32.1389C100.321 32.3981 100.148 32.6211 99.9518 32.8081C99.6269 33.1225 99.2679 33.3434 98.8747 33.4709C98.4815 33.5984 98.0669 33.6621 97.6309 33.6621C97.2121 33.6621 96.9214 33.5984 96.759 33.4709C96.665 33.3944 96.5945 33.3073 96.5475 33.2096C96.5004 33.1119 96.4769 32.9865 96.4769 32.8336C96.4769 32.5447 96.5752 32.328 96.7718 32.1835C96.8488 32.124 96.9385 32.0794 97.0411 32.0497C97.1437 32.0199 97.2805 32.0051 97.4514 32.0051C97.913 32.0051 98.2977 31.8967 98.6054 31.68C98.9132 31.4634 99.1653 31.0576 99.3619 30.4628L100.157 28.0919L96.2975 17.0918C96.2291 16.8964 96.1885 16.7286 96.1757 16.5884C96.1628 16.4481 96.1777 16.3143 96.2205 16.1868C96.2804 16.0254 96.3915 15.8937 96.5539 15.7917C96.7163 15.6897 96.8873 15.6388 97.0668 15.6388C97.3403 15.6388 97.5412 15.7259 97.6694 15.9001C97.7977 16.0743 97.9045 16.2846 97.99 16.531L101.042 25.7976L104.106 16.531Z" fill="#001F35"/>
</svg>
