<svg width="143" height="32" viewBox="0 0 143 32" fill="none" xmlns="http://www.w3.org/2000/svg">
<g clip-path="url(#clip0)">
<path fill-rule="evenodd" clip-rule="evenodd" d="M142.505 10.4764C142.5 10.3956 142.475 10.3172 142.431 10.2488C142.388 10.1803 142.328 10.1239 142.257 10.0846C141.936 9.92368 141.468 9.81399 140.516 9.81399C138.367 9.81399 136.466 10.8776 135.637 12.6572V10.4834C135.637 10.4385 135.628 10.3941 135.611 10.3527C135.594 10.3112 135.569 10.2737 135.537 10.2419C135.505 10.2102 135.468 10.1849 135.426 10.1678C135.384 10.1506 135.34 10.1417 135.295 10.1417H132.077C132.032 10.1417 131.987 10.1506 131.946 10.1678C131.904 10.1849 131.867 10.2102 131.835 10.2419C131.803 10.2737 131.778 10.3112 131.761 10.3527C131.744 10.3941 131.735 10.4385 131.735 10.4834V25.1382C131.735 25.3259 131.887 25.4787 132.077 25.4787H135.448C135.493 25.4787 135.538 25.4699 135.579 25.4528C135.62 25.4357 135.658 25.4105 135.69 25.3789C135.722 25.3473 135.747 25.3097 135.764 25.2684C135.781 25.2271 135.79 25.1829 135.79 25.1382V18.5467C135.79 15.602 137.844 14.1383 140.516 14.1383C141.14 14.1383 141.762 14.276 142.074 14.3786C142.288 14.4486 142.505 14.2736 142.505 14.0485V10.4764ZM120.962 21.8821C118.657 21.8821 116.876 20.2576 116.876 17.8039C116.876 15.3501 118.659 13.7244 120.962 13.7244C123.265 13.7244 125.047 15.3501 125.047 17.8039C125.047 20.2576 123.265 21.8832 120.962 21.8832V21.8821ZM120.962 9.76615C116.231 9.76615 112.699 13.0188 112.699 17.8039C112.699 22.5889 116.232 25.8403 120.962 25.8403C125.691 25.8403 129.223 22.5888 129.223 17.805C129.223 13.0188 125.691 9.76615 120.962 9.76615ZM102.205 21.8832C99.9001 21.8832 98.1184 20.2576 98.1184 17.8039C98.1184 15.3501 99.9001 13.7244 102.205 13.7244C104.508 13.7244 106.289 15.3501 106.289 17.8039C106.289 20.2576 104.508 21.8832 102.205 21.8832ZM102.205 9.76615C97.4738 9.76615 93.9409 13.0188 93.9409 17.8039C93.9409 22.5889 97.4738 25.8403 102.205 25.8403C106.933 25.8403 110.466 22.5889 110.466 17.8039C110.466 13.0188 106.933 9.76615 102.205 9.76615ZM83.4731 21.9205C81.1696 21.9205 79.4488 20.2949 79.4488 17.8108C79.4488 15.3256 81.1696 13.6999 83.4731 13.6999C85.7473 13.6999 87.4974 15.265 87.4974 17.8108C87.4974 20.3252 85.7473 21.9205 83.4731 21.9205ZM91.0876 4.00736H87.7161C87.6255 4.00736 87.5386 4.0433 87.4746 4.10716C87.4105 4.17102 87.3745 4.25758 87.3745 4.34789V12.3506C86.3299 10.8776 84.6102 9.74167 82.2155 9.74167C78.4673 9.74167 75.2724 12.627 75.2724 17.8108C75.2724 22.9947 78.4661 25.8776 82.2752 25.8776C84.5178 25.8776 86.269 24.8956 87.3757 23.3317V25.1382C87.3757 25.3259 87.5277 25.4787 87.7149 25.4787H91.0876C91.2748 25.4787 91.428 25.3271 91.428 25.1382V4.34789C91.428 4.25778 91.3922 4.17142 91.3284 4.10759C91.2646 4.04376 91.178 4.00767 91.0876 4.00736ZM73.0392 20.836C73.0392 24.3347 70.4901 25.8367 66.4062 25.8367C63.5833 25.8367 61.1559 25.0787 59.7673 23.509C59.7148 23.4474 59.6853 23.3697 59.6838 23.2889C59.6823 23.2081 59.7089 23.1293 59.7591 23.0658L61.7081 20.5397C61.7381 20.5016 61.7761 20.4704 61.8195 20.4484C61.8628 20.4263 61.9104 20.4139 61.959 20.4121C62.0077 20.4102 62.0561 20.4188 62.1011 20.4374C62.146 20.456 62.1863 20.4842 62.2192 20.52C63.2487 21.5731 64.8327 22.2168 66.8051 22.2168C67.9398 22.2168 68.8617 21.9112 68.8617 21.0517C68.8617 20.2237 68.0334 20.0395 65.4527 19.4867C63.1797 19.0272 60.3534 17.9846 60.3534 14.641C60.3534 11.5424 62.8124 9.76388 66.8343 9.76388C69.4817 9.76388 71.385 10.5616 72.7257 11.8164C72.8543 11.9366 72.8661 12.1395 72.7573 12.2783L70.9077 14.676C70.8806 14.7129 70.8462 14.7436 70.8065 14.7664C70.7669 14.7893 70.7229 14.8037 70.6774 14.8087C70.6318 14.8138 70.5858 14.8094 70.542 14.7958C70.4983 14.7821 70.4579 14.7596 70.4234 14.7296C69.5167 13.9214 68.0089 13.4142 66.5278 13.4142C65.2691 13.4142 64.5625 13.8131 64.5625 14.4871C64.5625 15.2545 65.393 15.4387 68.1258 16.0218C70.7966 16.6049 73.0392 17.616 73.0392 20.8371V20.836ZM57.4498 20.8453C57.4498 24.3428 54.8995 25.8461 50.8156 25.8461C47.9939 25.8461 45.5664 25.088 44.1778 23.5171C44.1255 23.4557 44.096 23.3782 44.0943 23.2977C44.0926 23.2172 44.1188 23.1385 44.1685 23.0751L46.1175 20.5479C46.1477 20.51 46.1858 20.479 46.2292 20.4572C46.2726 20.4353 46.3202 20.4232 46.3688 20.4214C46.4174 20.4197 46.4657 20.4283 46.5106 20.4469C46.5555 20.4655 46.5957 20.4936 46.6287 20.5292C47.6593 21.5811 49.2433 22.2262 51.2145 22.2262C52.3504 22.2262 53.2723 21.9206 53.2723 21.0599C53.2723 20.2319 52.4429 20.0487 49.8633 19.496C47.5892 19.0353 44.7628 17.9927 44.7628 14.6503C44.7628 11.5516 47.2218 9.77313 51.2449 9.77313C53.8911 9.77313 55.7933 10.5697 57.1351 11.8257C57.2638 11.9458 57.2755 12.1476 57.1678 12.2875L55.3172 14.6853C55.2002 14.8369 54.9779 14.8672 54.834 14.739C53.9262 13.9308 52.4195 13.4223 50.9384 13.4223C49.6785 13.4223 48.9719 13.8223 48.9719 14.4964C48.9719 15.2638 49.8025 15.4481 52.5353 16.0312C55.2072 16.6131 57.4487 17.6253 57.4487 20.8453H57.4498ZM37.243 19.2826C37.243 20.9689 35.8626 22.4418 33.7112 22.4418C32.2981 22.4418 31.5306 21.7969 31.5306 20.8149C31.5306 19.9566 32.1764 19.3116 33.4351 19.1274L37.243 18.668V19.2814V19.2826ZM34.5722 9.80345C31.3551 9.80345 28.9324 10.8787 27.8491 13.0047C27.8134 13.0785 27.8049 13.1625 27.8252 13.2419C27.8456 13.3213 27.8934 13.391 27.9602 13.4386L30.4181 15.1927C30.5725 15.3023 30.7901 15.2661 30.8825 15.0993C31.5657 13.8724 33.0935 13.4537 34.5722 13.4537C36.3843 13.4537 37.243 14.0976 37.243 14.9874V15.2322C37.243 15.6008 37.0289 15.785 36.4451 15.8468L32.2372 16.2143C29.412 16.4895 27.3238 18.2388 27.3238 21.0296C27.3238 23.8519 29.4729 25.8145 32.5133 25.8145C34.9092 25.8145 36.4452 24.6496 37.243 23.4227V25.1673C37.243 25.3563 37.3951 25.509 37.5846 25.509H40.9561C41.0467 25.509 41.1336 25.4731 41.1977 25.4092C41.2617 25.3453 41.2977 25.2588 41.2977 25.1685V16.03C41.2977 11.7663 39.0551 9.80345 34.5711 9.80345H34.5722ZM24.542 4.34675V25.137C24.542 25.3248 24.3899 25.4775 24.2004 25.4775H20.7984C20.7078 25.4775 20.6209 25.4416 20.5569 25.3777C20.4928 25.3139 20.4568 25.2273 20.4568 25.137V4.34092C20.4568 4.15549 20.6066 4.00623 20.7914 4.00623H24.2004C24.3887 4.00623 24.542 4.15783 24.542 4.34675ZM9.15378 21.9043C6.84917 21.9043 5.12949 20.2785 5.12949 17.7945C5.12949 15.3104 6.85034 13.6835 9.15378 13.6835C11.4584 13.6835 13.1464 15.2486 13.1464 17.7945C13.1464 20.3088 11.4572 21.9043 9.15378 21.9043ZM16.7671 10.1253H13.4003C13.3085 10.1253 13.2204 10.1618 13.1555 10.2265C13.0906 10.2913 13.054 10.379 13.054 10.4706V12.2736C12.1942 10.8928 10.4125 9.7569 8.04826 9.7569C4.23923 9.7569 0.953125 12.6106 0.953125 17.7338C0.953125 22.8244 4.08596 25.6152 8.17107 25.6152C10.3821 25.6152 12.1017 24.695 13.116 23.2536V24.2354C13.116 26.4431 12.0398 28.1925 8.60041 28.1925C6.87137 28.1925 5.48277 27.6175 4.26496 26.5411C4.2286 26.5077 4.18523 26.4827 4.13801 26.4679C4.09079 26.4532 4.04093 26.449 3.99192 26.4558C3.94291 26.4627 3.896 26.4802 3.85461 26.5072C3.81323 26.5343 3.77839 26.5702 3.75258 26.6123L2.22594 29.1687C2.02823 29.4987 2.05509 29.6853 2.1791 29.7938C3.74903 31.1548 5.78929 31.9955 8.75485 31.9955C15.2042 31.9955 17.1087 28.4083 17.1087 24.4501V10.4671C17.1089 10.4223 17.1002 10.3779 17.0831 10.3365C17.066 10.295 17.0409 10.2573 17.0091 10.2256C16.9774 10.1938 16.9397 10.1686 16.8982 10.1514C16.8566 10.1342 16.8121 10.1253 16.7671 10.1253Z" fill="#001F35"/>
</g>
<defs>
<clipPath id="clip0">
<rect width="142" height="32" fill="white" transform="translate(0.953125)"/>
</clipPath>
</defs>
</svg>
