<svg width="32" height="28" viewBox="0 0 32 28" fill="none" xmlns="http://www.w3.org/2000/svg">
<path d="M10.3898 0.185683L10.4173 0.185059L10.4198 0.215684L10.3848 0.216933L10.3898 0.185683Z" fill="#0BA25E"/>
<path d="M10.2825 0.390772C10.3069 0.355772 10.3544 0.285772 10.3787 0.250772L10.4225 0.243896C10.455 0.640147 10.5712 1.02202 10.6587 1.40765C11.035 3.08327 11.415 4.75765 11.8106 6.42827C12.07 7.5739 12.3594 8.7139 12.5969 9.8639C12.8031 10.5758 12.9137 11.3101 13.1131 12.0233C13.2419 12.6883 13.4438 13.337 13.5519 14.0058C13.5081 14.0789 13.4644 14.1526 13.42 14.2258C13.4094 14.2426 13.3869 14.2776 13.3762 14.2951L13.36 14.3233C13.3575 14.3283 13.3519 14.3389 13.3488 14.3439C13.3244 14.3889 13.2756 14.4783 13.2512 14.5226C13.2469 14.5308 13.2375 14.547 13.2325 14.5551L13.1881 14.6339C13.1825 14.6433 13.1719 14.6614 13.1669 14.6708L13.115 14.7614C13.1125 14.7664 13.1069 14.7764 13.1037 14.7814L13.0394 14.8939C13.0337 14.9033 13.0225 14.9233 13.0169 14.9333C13.0106 14.9439 12.9981 14.9645 12.9919 14.9751L12.9288 15.0839C12.9237 15.092 12.9137 15.1095 12.9087 15.1176L12.87 15.1833C12.8637 15.1945 12.85 15.2176 12.8438 15.2289C12.8188 15.272 12.7694 15.3583 12.7444 15.402C12.74 15.4095 12.7306 15.4251 12.7262 15.4333L12.6869 15.4989C12.6806 15.5108 12.6669 15.5333 12.66 15.5451C12.6369 15.5858 12.5894 15.6664 12.5662 15.707C12.5606 15.7164 12.55 15.7358 12.5444 15.7451L12.4975 15.8295C12.4931 15.837 12.4844 15.8526 12.48 15.8601L12.4319 15.9445C12.4269 15.9533 12.4169 15.9708 12.4119 15.9795C12.3869 16.0208 12.3381 16.1039 12.3137 16.1458C12.3081 16.1551 12.2969 16.1745 12.2912 16.1845L12.2469 16.2645C12.2425 16.272 12.2344 16.2864 12.2306 16.2939L12.1794 16.3826C12.175 16.3908 12.1656 16.4064 12.1613 16.4139C12.135 16.4589 12.0831 16.5483 12.0569 16.5933C12.0525 16.6014 12.0425 16.6176 12.0375 16.6258L12 16.6876C11.9937 16.6989 11.9806 16.7208 11.9744 16.732C11.9506 16.7733 11.9038 16.8551 11.88 16.8964C11.8763 16.9033 11.8675 16.9183 11.8637 16.9251L11.8125 17.0164C11.8088 17.0233 11.8012 17.0364 11.7975 17.0433L11.745 17.1351C11.7406 17.142 11.7319 17.157 11.7275 17.1639C11.7031 17.2051 11.6537 17.2864 11.6294 17.3276C11.6225 17.3383 11.61 17.3608 11.6031 17.372L11.5662 17.4408C11.5612 17.4495 11.5519 17.467 11.5475 17.4751L11.4831 17.5864C11.4781 17.5958 11.4669 17.6145 11.4619 17.6239C11.4563 17.6326 11.4462 17.6508 11.4412 17.6595C11.3356 17.8376 11.24 18.0214 11.1231 18.1926C10.4575 19.2783 9.845 20.3976 9.20062 21.4964C8.15437 23.307 7.10938 25.1177 6.06313 26.9283C5.90625 27.2101 5.7275 27.4801 5.5925 27.7745C5.58563 27.7845 5.57188 27.8045 5.565 27.8145C5.31437 27.4533 5.12063 27.0545 4.89125 26.6795C3.845 24.8676 2.79813 23.0564 1.7525 21.2439C1.17125 20.2245 0.565625 19.2176 0 18.1889C2.24 14.3233 4.47 10.4508 6.70563 6.58265C6.7075 6.5789 6.71188 6.57202 6.71375 6.56827L6.775 6.46327C6.7775 6.4589 6.7825 6.45015 6.78562 6.44577L6.8475 6.34015C6.85313 6.33077 6.86438 6.31077 6.87063 6.3014C6.87687 6.29015 6.88938 6.26827 6.89563 6.25702L6.9575 6.14702C6.96187 6.13952 6.97063 6.12452 6.975 6.11702L7.02125 6.04327C7.02938 6.0314 7.04563 6.00702 7.05375 5.99452C7.07625 5.96077 7.12187 5.89265 7.145 5.8589C7.1475 5.84765 7.15188 5.82577 7.15438 5.81515L7.20875 5.71077C7.21125 5.7064 7.21625 5.69765 7.21875 5.69327L7.28125 5.58827C7.2875 5.57827 7.3 5.55702 7.30625 5.5464C7.31313 5.53452 7.32688 5.51015 7.33438 5.49765L7.38688 5.40577C7.3925 5.39577 7.40375 5.3764 7.40938 5.36702L7.45312 5.29015C7.45813 5.28202 7.46812 5.26452 7.47312 5.25577C7.4975 5.2139 7.54625 5.13015 7.57125 5.08827C7.57625 5.07952 7.58625 5.06202 7.59125 5.05327L7.63688 4.97015C7.64062 4.9639 7.64813 4.95015 7.65188 4.9439L7.71187 4.8389C7.71938 4.8264 7.735 4.80077 7.74312 4.78827L7.78375 4.72702C7.7925 4.71452 7.80938 4.69015 7.81813 4.67827C7.82563 4.66577 7.84125 4.64077 7.84938 4.62827L7.88313 4.56327C7.89438 4.5389 7.9175 4.49015 7.92875 4.46577L7.96312 4.41765C7.96937 4.4089 7.98125 4.39202 7.9875 4.38327C8.01062 4.3639 8.0575 4.3239 8.08062 4.3039L8.07625 4.23077C8.08 4.22202 8.08875 4.20452 8.09312 4.19577L8.14625 4.09015C8.15063 4.08265 8.15937 4.06702 8.16375 4.05952L8.21062 3.98327C8.21937 3.97077 8.23625 3.94577 8.245 3.93327C8.26625 3.89827 8.30937 3.82952 8.33062 3.79515C8.33687 3.78265 8.34812 3.75827 8.35437 3.74577L8.3875 3.6739C8.3975 3.65515 8.41875 3.61702 8.42937 3.59765L8.47062 3.5389C8.47937 3.52702 8.49687 3.50327 8.50562 3.4914C8.51312 3.4789 8.52875 3.4539 8.53625 3.4414L8.56687 3.37702C8.57375 3.36265 8.58812 3.33327 8.595 3.3189L8.64875 3.21515C8.65687 3.20265 8.6725 3.1764 8.68 3.16327L8.72125 3.10202C8.73 3.08952 8.7475 3.06577 8.75625 3.05327C8.76437 3.04077 8.78 3.01515 8.7875 3.00265L8.81938 2.93765C8.82875 2.91952 8.84688 2.8839 8.85563 2.86577L8.89812 2.79577C8.90562 2.7839 8.92062 2.76015 8.92875 2.74827C8.95125 2.71327 8.99687 2.64327 9.02 2.6089C9.0225 2.59827 9.02812 2.57702 9.03062 2.5664L9.085 2.46265C9.08687 2.45827 9.09188 2.45015 9.09437 2.44577L9.15687 2.3389C9.16313 2.32827 9.175 2.30765 9.18125 2.29702C9.1875 2.28702 9.19937 2.26577 9.20562 2.25577L9.26812 2.1464C9.27062 2.14202 9.27563 2.13327 9.27812 2.12827L9.33687 2.0264C9.34 2.02202 9.34562 2.01265 9.34812 2.00765L9.41125 1.9014C9.41687 1.8914 9.42813 1.87265 9.43375 1.86265C9.44 1.85202 9.4525 1.83015 9.45875 1.8189L9.51875 1.71327C9.5225 1.7064 9.53 1.69327 9.53375 1.68702L9.58437 1.60515C9.5925 1.59327 9.60875 1.5689 9.61625 1.55702C9.63937 1.52265 9.68437 1.4539 9.7075 1.41952C9.70937 1.4089 9.71438 1.38765 9.71688 1.37702L9.77 1.27515C9.77437 1.26765 9.78375 1.25202 9.78813 1.2439L9.83562 1.16952C9.84437 1.15765 9.86062 1.13327 9.86937 1.12077C9.89125 1.08577 9.935 1.0164 9.95687 0.981397C9.96 0.971397 9.96562 0.951397 9.96875 0.941397L10.0237 0.838272C10.0262 0.833272 10.0312 0.824522 10.0337 0.819522L10.0975 0.712022C10.1025 0.702647 10.1137 0.683897 10.1194 0.674522C10.125 0.663897 10.1362 0.643897 10.1419 0.633897L10.2044 0.522647C10.2075 0.518272 10.2125 0.508897 10.215 0.504522L10.2744 0.403897C10.2762 0.400772 10.2806 0.393897 10.2825 0.390772Z" fill="#0BA25E"/>
<path d="M10.416 0.185055C12.446 0.17568 14.4766 0.183805 16.5073 0.18068C18.1873 0.18693 19.8685 0.167555 21.5479 0.190055C21.581 0.253805 21.6148 0.31693 21.6504 0.380055C21.6554 0.38818 21.6648 0.40568 21.6698 0.41443C21.8323 0.697555 21.9973 0.97943 22.1579 1.26318C22.161 1.26818 22.166 1.27755 22.1691 1.28193C22.4804 1.81631 22.7904 2.3513 23.096 2.8888C23.0985 2.89318 23.1041 2.90193 23.1066 2.90693C23.1623 3.00255 23.2198 3.09818 23.2766 3.19443C23.2816 3.20255 23.291 3.21943 23.296 3.22818C23.3741 3.36568 23.4529 3.50255 23.5323 3.63943C23.5354 3.6438 23.5404 3.65255 23.5429 3.65755C23.6223 3.7938 23.7004 3.9313 23.7791 4.0688C23.7841 4.07693 23.7935 4.09318 23.7985 4.1013C23.8779 4.23505 23.9548 4.37005 24.031 4.50505C24.036 4.51318 24.0454 4.53005 24.0504 4.53818C24.7966 5.82693 25.541 7.1163 26.2848 8.40693C26.1998 8.7813 26.4054 9.1538 26.291 9.53005C26.2216 10.5582 25.8335 11.5588 25.1935 12.3663C24.9854 12.5919 25.1873 12.9051 25.1648 13.1726C24.9404 13.4444 24.6516 13.6476 24.3791 13.8669C24.3798 14.0719 24.3804 14.2769 24.371 14.4826C24.1279 14.6432 23.8491 14.7363 23.6023 14.8913C23.576 14.9744 23.5491 15.0582 23.5235 15.1426C23.3254 15.2363 23.1135 15.2969 22.9154 15.3919C22.131 15.1669 21.3548 14.9163 20.5723 14.6844C19.8441 14.4438 19.0985 14.2551 18.3779 13.9901L18.3366 13.9163C18.3329 13.9107 18.3266 13.8994 18.3235 13.8938L18.2641 13.7932C18.2579 13.7826 18.2454 13.7613 18.2391 13.7507C18.2335 13.7413 18.2235 13.7232 18.2179 13.7138C18.1735 13.6351 18.1329 13.5544 18.0966 13.4719L18.0929 13.4638L18.0885 13.4576C18.061 13.4138 18.0054 13.3257 17.9773 13.2819C17.9741 13.2769 17.9679 13.2669 17.9648 13.2613L17.9466 13.2326C17.936 13.2144 17.9141 13.1788 17.9035 13.1607C17.8766 13.1151 17.8223 13.0238 17.7954 12.9782C17.7885 12.9669 17.7754 12.9438 17.7685 12.9326L17.7304 12.8676C17.7254 12.8588 17.7154 12.8419 17.7104 12.8332L17.6498 12.7288C17.6473 12.7244 17.6416 12.7157 17.6391 12.7107L17.5754 12.6013C17.5698 12.5913 17.5585 12.5713 17.5529 12.5619C17.5466 12.5507 17.5335 12.5276 17.5273 12.5163L17.4754 12.4251C17.4691 12.4144 17.4566 12.3919 17.4504 12.3813L17.4104 12.3107C17.4048 12.3013 17.3941 12.2826 17.3885 12.2732C17.3641 12.2282 17.3148 12.1388 17.2898 12.0938C17.2873 12.0888 17.281 12.0782 17.2785 12.0732L17.2616 12.0438C17.2498 12.0263 17.2266 11.9913 17.2148 11.9738C17.1529 11.8701 17.0948 11.7638 17.0391 11.6569C17.036 11.6519 17.0304 11.6413 17.0279 11.6363L17.0116 11.6076C16.9998 11.5907 16.976 11.5569 16.9641 11.5407C16.9366 11.4913 16.8816 11.3926 16.8541 11.3432C16.851 11.3382 16.8448 11.3276 16.8423 11.3219L16.8254 11.2919C16.8129 11.2713 16.7885 11.2307 16.776 11.2101L16.7223 11.1194C16.7173 11.1107 16.7066 11.0932 16.701 11.0838C16.6773 11.0426 16.6291 10.9594 16.6048 10.9182C16.5991 10.9088 16.5885 10.8894 16.5829 10.8794C16.5404 10.8088 16.4998 10.7376 16.4598 10.6663C16.4566 10.6607 16.4498 10.6494 16.4466 10.6438L16.3873 10.5419C16.381 10.5319 16.3691 10.5119 16.3635 10.5013C16.3579 10.4919 16.3473 10.4732 16.3416 10.4638L16.2785 10.3538C16.2754 10.3488 16.2698 10.3382 16.2666 10.3332L16.2154 10.2413C16.211 10.2338 16.2029 10.2194 16.1985 10.2119C16.1748 10.1701 16.1266 10.0869 16.1029 10.0451C16.0979 10.0363 16.0879 10.0194 16.0829 10.0113C16.0441 9.94693 16.0054 9.88193 15.9679 9.81755C14.2348 6.81006 12.4991 3.80443 10.7623 0.798805C10.6535 0.611305 10.5548 0.416305 10.4216 0.243805L10.4185 0.21568L10.416 0.185055Z" fill="#FCCD48"/>
<path d="M10.3845 0.21707L10.4195 0.21582L10.4227 0.243945L10.3789 0.25082L10.3845 0.21707Z" fill="#089156"/>
<path d="M10.4219 0.244019C10.555 0.416519 10.6538 0.611519 10.7625 0.799019C12.4994 3.80464 14.235 6.81027 15.9681 9.81777C15.1656 11.2153 14.3569 12.6096 13.5513 14.0059C13.4431 13.3371 13.2413 12.6884 13.1125 12.0234C12.9131 11.3103 12.8025 10.5759 12.5963 9.86402C12.3588 8.71402 12.0694 7.57402 11.81 6.42839C11.4144 4.75777 11.0344 3.08339 10.6581 1.40777C10.5706 1.02214 10.4544 0.640269 10.4219 0.244019Z" fill="#089156"/>
<path d="M10.2734 0.403872C10.2753 0.400747 10.2797 0.393872 10.2816 0.390747C10.2797 0.393872 10.2753 0.400747 10.2734 0.403872Z" fill="#089156"/>
<path d="M10.2031 0.522642C10.2063 0.518267 10.2113 0.508892 10.2138 0.504517C10.2113 0.508892 10.2063 0.518267 10.2031 0.522642Z" fill="#089156"/>
<path d="M10.1191 0.674658C10.1248 0.664033 10.136 0.644033 10.1416 0.634033C10.136 0.644033 10.1248 0.664033 10.1191 0.674658Z" fill="#089156"/>
<path d="M10.0977 0.712061C10.1027 0.702686 10.1139 0.683936 10.1195 0.674561C10.1139 0.683936 10.1027 0.702686 10.0977 0.712061Z" fill="#089156"/>
<path d="M10.0234 0.83833C10.0259 0.83333 10.0309 0.82458 10.0334 0.81958C10.0309 0.82458 10.0259 0.83333 10.0234 0.83833Z" fill="#089156"/>
<path d="M9.95703 0.981407C9.96016 0.971407 9.96578 0.951406 9.96891 0.941406C9.96578 0.951406 9.96016 0.971407 9.95703 0.981407Z" fill="#089156"/>
<path d="M9.86914 1.12082C9.89102 1.08582 9.93477 1.01645 9.95664 0.981445C9.93477 1.01645 9.89102 1.08582 9.86914 1.12082Z" fill="#089156"/>
<path d="M9.83594 1.1696C9.84469 1.15772 9.86094 1.13335 9.86969 1.12085C9.86094 1.13335 9.84469 1.15772 9.83594 1.1696Z" fill="#089156"/>
<path d="M9.76953 1.27527C9.77391 1.26777 9.78328 1.25214 9.78766 1.24402C9.78328 1.25214 9.77391 1.26777 9.76953 1.27527Z" fill="#089156"/>
<path d="M9.70703 1.41958C9.70891 1.40895 9.71391 1.3877 9.71641 1.37708C9.71391 1.3877 9.70891 1.40895 9.70703 1.41958Z" fill="#089156"/>
<path d="M9.61523 1.55706C9.63836 1.52268 9.68336 1.45393 9.70648 1.41956C9.68336 1.45393 9.63836 1.52268 9.61523 1.55706Z" fill="#089156"/>
<path d="M9.58398 1.60525C9.59211 1.59338 9.60836 1.569 9.61586 1.55713C9.60836 1.569 9.59211 1.59338 9.58398 1.60525Z" fill="#089156"/>
<path d="M9.51758 1.71326C9.52133 1.70639 9.52883 1.69326 9.53258 1.68701C9.52883 1.69326 9.52133 1.70639 9.51758 1.71326Z" fill="#089156"/>
<path d="M9.43359 1.86272C9.43984 1.85209 9.45234 1.83022 9.45859 1.81897C9.45234 1.83022 9.43984 1.85209 9.43359 1.86272Z" fill="#089156"/>
<path d="M9.41016 1.90142C9.41578 1.89142 9.42703 1.87267 9.43266 1.86267C9.42703 1.87267 9.41578 1.89142 9.41016 1.90142Z" fill="#089156"/>
<path d="M9.33594 2.02644C9.33906 2.02207 9.34469 2.01269 9.34719 2.00769C9.34469 2.01269 9.33906 2.02207 9.33594 2.02644Z" fill="#089156"/>
<path d="M9.26758 2.14642C9.27008 2.14205 9.27508 2.1333 9.27758 2.1283C9.27508 2.1333 9.27008 2.14205 9.26758 2.14642Z" fill="#089156"/>
<path d="M9.17969 2.29711C9.18594 2.28711 9.19781 2.26586 9.20406 2.25586C9.19781 2.26586 9.18594 2.28711 9.17969 2.29711Z" fill="#089156"/>
<path d="M9.15625 2.33887C9.1625 2.32825 9.17437 2.30762 9.18062 2.297C9.17437 2.30762 9.1625 2.32825 9.15625 2.33887Z" fill="#089156"/>
<path d="M9.08398 2.46268C9.08586 2.4583 9.09086 2.45018 9.09336 2.4458C9.09086 2.45018 9.08586 2.4583 9.08398 2.46268Z" fill="#089156"/>
<path d="M9.01953 2.60891C9.02203 2.59828 9.02766 2.57703 9.03016 2.56641C9.02766 2.57703 9.02203 2.59828 9.01953 2.60891Z" fill="#089156"/>
<path d="M8.92773 2.74826C8.95023 2.71326 8.99586 2.64326 9.01898 2.60889C8.99586 2.64326 8.95023 2.71326 8.92773 2.74826Z" fill="#089156"/>
<path d="M8.89844 2.79579C8.90594 2.78392 8.92094 2.76017 8.92906 2.74829C8.92094 2.76017 8.90594 2.78392 8.89844 2.79579Z" fill="#089156"/>
<path d="M8.81836 2.93772C8.82773 2.91959 8.84586 2.88397 8.85461 2.86584C8.84586 2.88397 8.82773 2.91959 8.81836 2.93772Z" fill="#089156"/>
<path d="M8.75586 3.05331C8.76398 3.04081 8.77961 3.01519 8.78711 3.00269C8.77961 3.01519 8.76398 3.04081 8.75586 3.05331Z" fill="#089156"/>
<path d="M8.7207 3.1021C8.72945 3.0896 8.74695 3.06584 8.7557 3.05334C8.74695 3.06584 8.72945 3.0896 8.7207 3.1021Z" fill="#089156"/>
<path d="M8.64844 3.21521C8.65656 3.20271 8.67219 3.17646 8.67969 3.16333C8.67219 3.17646 8.65656 3.20271 8.64844 3.21521Z" fill="#089156"/>
<path d="M8.56641 3.37709C8.57328 3.36272 8.58766 3.33334 8.59453 3.31897C8.58766 3.33334 8.57328 3.36272 8.56641 3.37709Z" fill="#089156"/>
<path d="M8.50586 3.49141C8.51336 3.47891 8.52898 3.45391 8.53648 3.44141C8.52898 3.45391 8.51336 3.47891 8.50586 3.49141Z" fill="#089156"/>
<path d="M8.4707 3.53896C8.47945 3.52708 8.49695 3.50333 8.5057 3.49146C8.49695 3.50333 8.47945 3.52708 8.4707 3.53896Z" fill="#089156"/>
<path d="M8.38672 3.67391C8.39672 3.65516 8.41797 3.61703 8.42859 3.59766C8.41797 3.61703 8.39672 3.65516 8.38672 3.67391Z" fill="#089156"/>
<path d="M8.33008 3.79522C8.33633 3.78272 8.34758 3.75835 8.35383 3.74585C8.34758 3.75835 8.33633 3.78272 8.33008 3.79522Z" fill="#089156"/>
<path d="M8.24414 3.93329C8.26539 3.89829 8.30852 3.82954 8.32977 3.79517C8.30852 3.82954 8.26539 3.89829 8.24414 3.93329Z" fill="#089156"/>
<path d="M8.21094 3.98335C8.21969 3.97085 8.23656 3.94585 8.24531 3.93335C8.23656 3.94585 8.21969 3.97085 8.21094 3.98335Z" fill="#089156"/>
<path d="M8.14648 4.0902C8.15086 4.0827 8.15961 4.06707 8.16398 4.05957C8.15961 4.06707 8.15086 4.0827 8.14648 4.0902Z" fill="#089156"/>
<path d="M8.07617 4.2308C8.07992 4.22205 8.08867 4.20455 8.09305 4.1958C8.08867 4.20455 8.07992 4.22205 8.07617 4.2308Z" fill="#089156"/>
<path d="M7.98633 4.38334C8.0082 4.34521 8.05258 4.26896 8.07508 4.23083L8.07945 4.30396C8.05633 4.32396 8.00945 4.36396 7.98633 4.38334Z" fill="#089156"/>
<path d="M7.96289 4.41768C7.96914 4.40893 7.98102 4.39205 7.98727 4.3833C7.98102 4.39205 7.96914 4.40893 7.96289 4.41768Z" fill="#089156"/>
<path d="M7.88281 4.56332C7.89406 4.53894 7.91719 4.4902 7.92844 4.46582C7.91719 4.4902 7.89406 4.53894 7.88281 4.56332Z" fill="#089156"/>
<path d="M7.81836 4.6783C7.82586 4.6658 7.84148 4.6408 7.84961 4.6283C7.84148 4.6408 7.82586 4.6658 7.81836 4.6783Z" fill="#089156"/>
<path d="M7.7832 4.7271C7.79195 4.7146 7.80883 4.69022 7.81758 4.67834C7.80883 4.69022 7.79195 4.7146 7.7832 4.7271Z" fill="#089156"/>
<path d="M7.71094 4.83896C7.71844 4.82646 7.73406 4.80083 7.74219 4.78833C7.73406 4.80083 7.71844 4.82646 7.71094 4.83896Z" fill="#089156"/>
<path d="M7.63672 4.97022C7.64047 4.96397 7.64797 4.95022 7.65172 4.94397C7.64797 4.95022 7.64047 4.96397 7.63672 4.97022Z" fill="#089156"/>
<path d="M7.57031 5.08834C7.57531 5.07959 7.58531 5.06209 7.59031 5.05334C7.58531 5.06209 7.57531 5.07959 7.57031 5.08834Z" fill="#089156"/>
<path d="M7.45312 5.29023C7.45812 5.28211 7.46812 5.26461 7.47312 5.25586C7.46812 5.26461 7.45812 5.28211 7.45312 5.29023Z" fill="#089156"/>
<path d="M7.38672 5.40582C7.39234 5.39582 7.40359 5.37644 7.40922 5.36707C7.40359 5.37644 7.39234 5.39582 7.38672 5.40582Z" fill="#089156"/>
<path d="M7.30469 5.54643C7.31156 5.53456 7.32531 5.51018 7.33281 5.49768C7.32531 5.51018 7.31156 5.53456 7.30469 5.54643Z" fill="#089156"/>
<path d="M7.28125 5.58826C7.2875 5.57826 7.3 5.55701 7.30625 5.54639C7.3 5.55701 7.2875 5.57826 7.28125 5.58826Z" fill="#089156"/>
<path d="M7.20898 5.71086C7.21148 5.70648 7.21648 5.69773 7.21898 5.69336C7.21648 5.69773 7.21148 5.70648 7.20898 5.71086Z" fill="#089156"/>
<path d="M7.14453 5.85894C7.14703 5.84769 7.15141 5.82581 7.15391 5.81519C7.15141 5.82581 7.14703 5.84769 7.14453 5.85894Z" fill="#089156"/>
<path d="M7.05273 5.99452C7.07523 5.96077 7.12086 5.89264 7.14398 5.85889C7.12086 5.89264 7.07523 5.96077 7.05273 5.99452Z" fill="#089156"/>
<path d="M7.02148 6.04338C7.02961 6.0315 7.04586 6.00713 7.05398 5.99463C7.04586 6.00713 7.02961 6.0315 7.02148 6.04338Z" fill="#089156"/>
<path d="M6.95703 6.14707C6.96141 6.13957 6.97016 6.12457 6.97453 6.11707C6.97016 6.12457 6.96141 6.13957 6.95703 6.14707Z" fill="#089156"/>
<path d="M6.87109 6.30145C6.87734 6.2902 6.88984 6.26833 6.89609 6.25708C6.88984 6.26833 6.87734 6.2902 6.87109 6.30145Z" fill="#089156"/>
<path d="M6.84766 6.34014C6.85328 6.33077 6.86453 6.31077 6.87078 6.30139C6.86453 6.31077 6.85328 6.33077 6.84766 6.34014Z" fill="#089156"/>
<path d="M6.77344 6.4633C6.77594 6.45893 6.78094 6.45018 6.78406 6.4458C6.78094 6.45018 6.77594 6.45893 6.77344 6.4633Z" fill="#089156"/>
<path d="M6.70508 6.58273C6.70695 6.57898 6.71133 6.57211 6.7132 6.56836C6.71133 6.57211 6.70695 6.57898 6.70508 6.58273Z" fill="#089156"/>
<path d="M13.375 14.2952C13.3856 14.2777 13.4081 14.2427 13.4187 14.2258C13.4081 14.2427 13.3856 14.2777 13.375 14.2952Z" fill="#089156"/>
<path d="M13.3477 14.344C13.3508 14.339 13.3564 14.3284 13.3589 14.3234C13.3564 14.3284 13.3508 14.339 13.3477 14.344Z" fill="#089156"/>
<path d="M13.2324 14.5552C13.2374 14.5471 13.2468 14.5308 13.2512 14.5227C13.2468 14.5308 13.2374 14.5471 13.2324 14.5552Z" fill="#089156"/>
<path d="M13.166 14.6709C13.171 14.6615 13.1816 14.6434 13.1873 14.634C13.1816 14.6434 13.171 14.6615 13.166 14.6709Z" fill="#089156"/>
<path d="M13.1035 14.7815C13.1066 14.7765 13.1123 14.7665 13.1148 14.7615C13.1123 14.7665 13.1066 14.7765 13.1035 14.7815Z" fill="#089156"/>
<path d="M13.0156 14.9333C13.0213 14.9233 13.0325 14.9033 13.0381 14.8939C13.0325 14.9033 13.0213 14.9233 13.0156 14.9333Z" fill="#089156"/>
<path d="M12.9922 14.9752C12.9984 14.9646 13.0109 14.944 13.0172 14.9333C13.0109 14.944 12.9984 14.9646 12.9922 14.9752Z" fill="#089156"/>
<path d="M12.9082 15.1177C12.9132 15.1096 12.9232 15.0921 12.9282 15.084C12.9232 15.0921 12.9132 15.1096 12.9082 15.1177Z" fill="#089156"/>
<path d="M12.8438 15.229C12.85 15.2177 12.8637 15.1946 12.87 15.1833C12.8637 15.1946 12.85 15.2177 12.8438 15.229Z" fill="#089156"/>
<path d="M12.7266 15.4333C12.7309 15.4252 12.7403 15.4096 12.7447 15.4021C12.7403 15.4096 12.7309 15.4252 12.7266 15.4333Z" fill="#089156"/>
<path d="M12.6602 15.5452C12.667 15.5333 12.6808 15.5108 12.687 15.4989C12.6808 15.5108 12.667 15.5333 12.6602 15.5452Z" fill="#089156"/>
<path d="M12.543 15.7452C12.5486 15.7358 12.5592 15.7164 12.5648 15.707C12.5592 15.7164 12.5486 15.7358 12.543 15.7452Z" fill="#089156"/>
<path d="M12.4805 15.8602C12.4848 15.8527 12.4936 15.8371 12.498 15.8296C12.4936 15.8371 12.4848 15.8527 12.4805 15.8602Z" fill="#089156"/>
<path d="M12.4121 15.9796C12.4171 15.9708 12.4271 15.9533 12.4321 15.9446C12.4271 15.9533 12.4171 15.9708 12.4121 15.9796Z" fill="#089156"/>
<path d="M12.291 16.1845C12.2966 16.1745 12.3079 16.1551 12.3135 16.1458C12.3079 16.1551 12.2966 16.1745 12.291 16.1845Z" fill="#089156"/>
<path d="M12.2305 16.294C12.2342 16.2865 12.2423 16.2721 12.2467 16.2646C12.2423 16.2721 12.2342 16.2865 12.2305 16.294Z" fill="#089156"/>
<path d="M12.1602 16.4139C12.1645 16.4064 12.1739 16.3908 12.1783 16.3827C12.1739 16.3908 12.1645 16.4064 12.1602 16.4139Z" fill="#089156"/>
<path d="M12.0371 16.6259C12.0421 16.6178 12.0521 16.6015 12.0565 16.5934C12.0521 16.6015 12.0421 16.6178 12.0371 16.6259Z" fill="#089156"/>
<path d="M11.9746 16.7321C11.9809 16.7209 11.994 16.699 12.0002 16.6877C11.994 16.699 11.9809 16.7209 11.9746 16.7321Z" fill="#089156"/>
<path d="M11.8633 16.9252C11.867 16.9184 11.8758 16.9034 11.8795 16.8965C11.8758 16.9034 11.867 16.9184 11.8633 16.9252Z" fill="#089156"/>
<path d="M11.7969 17.0434C11.8006 17.0365 11.8081 17.0234 11.8119 17.0165C11.8081 17.0234 11.8006 17.0365 11.7969 17.0434Z" fill="#089156"/>
<path d="M11.7266 17.1639C11.7309 17.157 11.7397 17.142 11.7441 17.1351C11.7397 17.142 11.7309 17.157 11.7266 17.1639Z" fill="#089156"/>
<path d="M11.6016 17.3721C11.6084 17.3609 11.6209 17.3384 11.6278 17.3278C11.6209 17.3384 11.6084 17.3609 11.6016 17.3721Z" fill="#089156"/>
<path d="M11.5469 17.4752C11.5513 17.467 11.5606 17.4495 11.5656 17.4408C11.5606 17.4495 11.5513 17.467 11.5469 17.4752Z" fill="#089156"/>
<path d="M11.4609 17.6239C11.4659 17.6145 11.4772 17.5958 11.4822 17.5864C11.4772 17.5958 11.4659 17.6145 11.4609 17.6239Z" fill="#089156"/>
<path d="M11.4414 17.6596C11.4464 17.6509 11.4564 17.6328 11.462 17.624C11.4564 17.6328 11.4464 17.6509 11.4414 17.6596Z" fill="#089156"/>
<path d="M21.6504 0.380127C21.6554 0.388252 21.6648 0.405752 21.6698 0.414502C21.6648 0.405752 21.6554 0.388252 21.6504 0.380127Z" fill="#10985B"/>
<path d="M22.1582 1.26331C22.1613 1.26831 22.1663 1.27768 22.1695 1.28206C22.1663 1.27768 22.1613 1.26831 22.1582 1.26331Z" fill="#10985B"/>
<path d="M23.0957 2.88892C23.0982 2.89329 23.1038 2.90204 23.1063 2.90704C23.1038 2.90204 23.0982 2.89329 23.0957 2.88892Z" fill="#10985B"/>
<path d="M23.2773 3.19446C23.2823 3.20258 23.2917 3.21946 23.2967 3.22821C23.2917 3.21946 23.2823 3.20258 23.2773 3.19446Z" fill="#10985B"/>
<path d="M23.5312 3.63953C23.5344 3.6439 23.5394 3.65265 23.5419 3.65765C23.5394 3.65265 23.5344 3.6439 23.5312 3.63953Z" fill="#10985B"/>
<path d="M23.7793 4.06885C23.7843 4.07697 23.7937 4.09322 23.7987 4.10135C23.7937 4.09322 23.7843 4.07697 23.7793 4.06885Z" fill="#10985B"/>
<path d="M24.0312 4.50513C24.0362 4.51325 24.0456 4.53013 24.0506 4.53825C24.0456 4.53013 24.0362 4.51325 24.0312 4.50513Z" fill="#10985B"/>
<path d="M26.2854 8.40698C27.3723 10.2901 28.466 12.1701 29.5441 14.0589C29.5491 14.067 29.5591 14.0845 29.5641 14.0926C29.5891 14.1338 29.6391 14.2157 29.6635 14.2564C29.6685 14.2645 29.6785 14.2814 29.6835 14.2895L29.7335 14.3751C29.7366 14.3807 29.7429 14.3926 29.7466 14.3982L29.8091 14.507C29.8154 14.5176 29.8273 14.5395 29.8335 14.5501C29.8391 14.5595 29.8504 14.5788 29.856 14.5888L29.9173 14.6951C29.9198 14.6995 29.9248 14.7082 29.9273 14.7126L29.9885 14.8176C29.991 14.822 29.996 14.8301 29.9985 14.8345L30.0598 14.9407C30.066 14.9513 30.0779 14.972 30.0841 14.9826C30.0898 14.9932 30.1016 15.0138 30.1073 15.0238L30.1704 15.1351C30.1791 15.157 30.1966 15.1995 30.2054 15.2207L30.2229 15.2551L30.231 15.2732L30.2448 15.2913L30.2816 15.347C30.2948 15.3676 30.3204 15.4088 30.3335 15.4295C30.341 15.442 30.3573 15.467 30.3648 15.4795L30.406 15.5451C30.4185 15.5732 30.4435 15.6301 30.456 15.6582L30.4748 15.692L30.4816 15.7051L30.4873 15.7132C30.5148 15.7538 30.5691 15.8357 30.5966 15.8763C30.6035 15.8876 30.6173 15.9101 30.6248 15.9213L30.6623 15.9838C30.6679 15.9938 30.6791 16.0132 30.6848 16.0226L30.7479 16.1332C30.7535 16.1432 30.7648 16.1632 30.7704 16.1732C30.776 16.1832 30.7873 16.2026 30.7929 16.2126L30.8554 16.3195C30.8579 16.3245 30.8635 16.3338 30.8666 16.3382L30.9235 16.4382C30.9273 16.4445 30.9348 16.4576 30.9385 16.4638L30.996 16.5645C31.0029 16.5757 31.016 16.5988 31.0229 16.6101C31.0285 16.6201 31.0404 16.6401 31.046 16.6501C31.0923 16.727 31.1366 16.8051 31.1779 16.8851C31.1841 16.8982 31.1966 16.9245 31.2023 16.9376L31.231 17.0026C31.2385 17.0151 31.2535 17.0407 31.2604 17.0532C31.2698 17.0657 31.2879 17.0895 31.2973 17.1013L31.3404 17.1626C31.3479 17.1745 31.3629 17.1982 31.371 17.2107L31.4341 17.3201C31.4398 17.3301 31.451 17.3501 31.4566 17.3601C31.4623 17.3701 31.4735 17.3895 31.4798 17.3995L31.5423 17.507C31.5448 17.512 31.5498 17.5207 31.5523 17.5251L31.6116 17.6288C31.6141 17.6332 31.6191 17.6413 31.6216 17.6457L31.6823 17.7513C31.6885 17.762 31.701 17.7832 31.7073 17.7945C31.7135 17.8051 31.726 17.8263 31.7316 17.837L31.7941 17.9445C31.7966 17.9488 31.801 17.9576 31.8035 17.962L31.8698 18.0857L31.8691 18.142C30.3054 17.6926 28.7666 17.1595 27.1985 16.7263C25.7754 16.267 24.3391 15.8488 22.916 15.392C23.1141 15.297 23.326 15.2363 23.5241 15.1426C23.5498 15.0582 23.5766 14.9745 23.6029 14.8913C23.8498 14.7363 24.1285 14.6432 24.3716 14.4826C24.381 14.277 24.3804 14.072 24.3798 13.867C24.6523 13.6476 24.941 13.4445 25.1654 13.1726C25.1879 12.9051 24.986 12.592 25.1941 12.3664C25.8341 11.5589 26.2223 10.5582 26.2916 9.53011C26.406 9.15386 26.2004 8.78136 26.2854 8.40698Z" fill="#F9C941"/>
<path d="M31.8691 18.142L31.9016 18.1432L31.9198 18.1907L31.8829 18.1932L31.8691 18.142Z" fill="#F9C941"/>
<path d="M16.084 10.0112C16.089 10.0194 16.099 10.0362 16.104 10.045C16.099 10.0362 16.089 10.0194 16.084 10.0112Z" fill="#E3B73A"/>
<path d="M16.1992 10.2119C16.2036 10.2194 16.2117 10.2338 16.2161 10.2413C16.2117 10.2338 16.2036 10.2194 16.1992 10.2119Z" fill="#E3B73A"/>
<path d="M16.2676 10.3331C16.2707 10.3381 16.2763 10.3488 16.2795 10.3538C16.2763 10.3488 16.2707 10.3381 16.2676 10.3331Z" fill="#E3B73A"/>
<path d="M16.3438 10.4637C16.3494 10.4731 16.36 10.4919 16.3656 10.5012C16.36 10.4919 16.3494 10.4731 16.3438 10.4637Z" fill="#E3B73A"/>
<path d="M16.3652 10.5012C16.3709 10.5118 16.3827 10.5318 16.389 10.5418C16.3827 10.5318 16.3709 10.5118 16.3652 10.5012Z" fill="#E3B73A"/>
<path d="M16.4473 10.6437C16.4504 10.6493 16.4573 10.6606 16.4604 10.6662C16.4573 10.6606 16.4504 10.6493 16.4473 10.6437Z" fill="#E3B73A"/>
<path d="M16.584 10.8794C16.5896 10.8894 16.6002 10.9088 16.6059 10.9181C16.6002 10.9088 16.5896 10.8894 16.584 10.8794Z" fill="#E3B73A"/>
<path d="M16.7031 11.0837C16.7088 11.0931 16.7194 11.1106 16.7244 11.1194C16.7194 11.1106 16.7088 11.0931 16.7031 11.0837Z" fill="#E3B73A"/>
<path d="M16.7773 11.21C16.7898 11.2306 16.8142 11.2712 16.8267 11.2918C16.8142 11.2712 16.7898 11.2306 16.7773 11.21Z" fill="#E3B73A"/>
<path d="M16.8438 11.3219C16.8462 11.3275 16.8525 11.3381 16.8556 11.3431C16.8525 11.3381 16.8462 11.3275 16.8438 11.3219Z" fill="#E3B73A"/>
<path d="M16.9648 11.5406C16.9767 11.5569 17.0005 11.5907 17.0123 11.6075C17.0005 11.5907 16.9767 11.5569 16.9648 11.5406Z" fill="#E3B73A"/>
<path d="M17.0293 11.6362C17.0318 11.6412 17.0374 11.6519 17.0405 11.6569C17.0374 11.6519 17.0318 11.6412 17.0293 11.6362Z" fill="#E3B73A"/>
<path d="M17.2148 11.9738C17.2267 11.9913 17.2498 12.0263 17.2617 12.0438C17.2498 12.0263 17.2267 11.9913 17.2148 11.9738Z" fill="#E3B73A"/>
<path d="M17.2793 12.0731C17.2818 12.0781 17.288 12.0887 17.2905 12.0937C17.288 12.0887 17.2818 12.0781 17.2793 12.0731Z" fill="#E3B73A"/>
<path d="M17.3906 12.2732C17.3963 12.2826 17.4069 12.3013 17.4125 12.3107C17.4069 12.3013 17.3963 12.2826 17.3906 12.2732Z" fill="#E3B73A"/>
<path d="M17.4512 12.3812C17.4574 12.3919 17.4699 12.4144 17.4762 12.425C17.4699 12.4144 17.4574 12.3919 17.4512 12.3812Z" fill="#E3B73A"/>
<path d="M17.5273 12.5162C17.5336 12.5275 17.5467 12.5506 17.553 12.5619C17.5467 12.5506 17.5336 12.5275 17.5273 12.5162Z" fill="#E3B73A"/>
<path d="M17.5547 12.5618C17.5603 12.5711 17.5716 12.5911 17.5772 12.6011C17.5716 12.5911 17.5603 12.5711 17.5547 12.5618Z" fill="#E3B73A"/>
<path d="M17.6406 12.7107C17.6431 12.7157 17.6488 12.7244 17.6513 12.7288C17.6488 12.7244 17.6431 12.7157 17.6406 12.7107Z" fill="#E3B73A"/>
<path d="M17.7109 12.8331C17.7159 12.8419 17.7259 12.8588 17.7309 12.8675C17.7259 12.8588 17.7159 12.8419 17.7109 12.8331Z" fill="#E3B73A"/>
<path d="M17.7695 12.9325C17.7764 12.9437 17.7895 12.9669 17.7964 12.9781C17.7895 12.9669 17.7764 12.9437 17.7695 12.9325Z" fill="#E3B73A"/>
<path d="M17.9043 13.1606C17.9149 13.1788 17.9368 13.2144 17.9474 13.2325C17.9368 13.2144 17.9149 13.1788 17.9043 13.1606Z" fill="#E3B73A"/>
<path d="M17.9648 13.2612C17.968 13.2669 17.9742 13.2769 17.9773 13.2819C17.9742 13.2769 17.968 13.2669 17.9648 13.2612Z" fill="#E3B73A"/>
<path d="M18.0898 13.4575L18.0942 13.4638L18.098 13.4719C18.0961 13.4681 18.0917 13.4613 18.0898 13.4575Z" fill="#E3B73A"/>
<path d="M18.2188 13.7137C18.2244 13.7231 18.2344 13.7412 18.24 13.7506C18.2344 13.7412 18.2244 13.7231 18.2188 13.7137Z" fill="#E3B73A"/>
<path d="M18.2402 13.7506C18.2465 13.7612 18.259 13.7825 18.2652 13.7931C18.259 13.7825 18.2465 13.7612 18.2402 13.7506Z" fill="#E3B73A"/>
<path d="M18.3242 13.8937C18.3273 13.8993 18.3336 13.9106 18.3373 13.9162C18.3336 13.9106 18.3273 13.8993 18.3242 13.8937Z" fill="#E3B73A"/>
<path d="M18.3789 13.99C19.0995 14.255 19.8452 14.4437 20.5733 14.6844C21.3558 14.9162 22.132 15.1669 22.9164 15.3919C24.3395 15.8487 25.7758 16.2669 27.1989 16.7262C27.1776 17.0306 27.2376 17.3425 27.162 17.6412C27.1039 17.9319 26.7564 17.9775 26.6133 18.2094C24.6901 18.21 22.7676 18.2156 20.8452 18.2075L20.8039 18.2044C20.0095 16.7919 19.1833 15.3969 18.3789 13.99Z" fill="#E3B73A"/>
<path d="M29.5449 14.0588C29.5499 14.067 29.5599 14.0845 29.5649 14.0926C29.5599 14.0845 29.5499 14.067 29.5449 14.0588Z" fill="#E8B835"/>
<path d="M29.6641 14.2563C29.6691 14.2645 29.6791 14.2813 29.6841 14.2895C29.6791 14.2813 29.6691 14.2645 29.6641 14.2563Z" fill="#E8B835"/>
<path d="M29.7344 14.375C29.7375 14.3806 29.7437 14.3925 29.7475 14.3981C29.7437 14.3925 29.7375 14.3806 29.7344 14.375Z" fill="#E8B835"/>
<path d="M29.8105 14.507C29.8168 14.5176 29.8287 14.5395 29.8349 14.5501C29.8287 14.5395 29.8168 14.5176 29.8105 14.507Z" fill="#E8B835"/>
<path d="M29.834 14.55C29.8396 14.5594 29.8509 14.5788 29.8565 14.5888C29.8509 14.5788 29.8396 14.5594 29.834 14.55Z" fill="#E8B835"/>
<path d="M29.918 14.6952C29.9205 14.6996 29.9255 14.7083 29.928 14.7127C29.9255 14.7083 29.9205 14.6996 29.918 14.6952Z" fill="#E8B835"/>
<path d="M29.9883 14.8175C29.9908 14.8219 29.9958 14.83 29.9983 14.8344C29.9958 14.83 29.9908 14.8219 29.9883 14.8175Z" fill="#E8B835"/>
<path d="M30.0605 14.9407C30.0668 14.9513 30.0787 14.9719 30.0849 14.9825C30.0787 14.9719 30.0668 14.9513 30.0605 14.9407Z" fill="#E8B835"/>
<path d="M30.084 14.9825C30.0896 14.9932 30.1015 15.0138 30.1071 15.0238C30.1015 15.0138 30.0896 14.9932 30.084 14.9825Z" fill="#E8B835"/>
<path d="M30.1699 15.1351C30.1787 15.157 30.1962 15.1995 30.2049 15.2208C30.1962 15.1995 30.1787 15.157 30.1699 15.1351Z" fill="#E8B835"/>
<path d="M30.2227 15.255C30.2283 15.2644 30.2389 15.2825 30.2445 15.2913L30.2308 15.2731L30.2227 15.255Z" fill="#E8B835"/>
<path d="M30.2812 15.3469C30.2944 15.3675 30.32 15.4088 30.3331 15.4294C30.32 15.4088 30.2944 15.3675 30.2812 15.3469Z" fill="#E8B835"/>
<path d="M30.334 15.4296C30.3415 15.4421 30.3577 15.4671 30.3652 15.4796C30.3577 15.4671 30.3415 15.4421 30.334 15.4296Z" fill="#E8B835"/>
<path d="M30.4062 15.545C30.4187 15.5732 30.4437 15.63 30.4562 15.6582C30.4437 15.63 30.4187 15.5732 30.4062 15.545Z" fill="#E8B835"/>
<path d="M30.4746 15.692C30.4777 15.6976 30.484 15.7083 30.4871 15.7133L30.4815 15.7051L30.4746 15.692Z" fill="#E8B835"/>
<path d="M30.5977 15.8763C30.6045 15.8876 30.6183 15.9101 30.6258 15.9213C30.6183 15.9101 30.6045 15.8876 30.5977 15.8763Z" fill="#E8B835"/>
<path d="M30.6621 15.9838C30.6677 15.9938 30.679 16.0131 30.6846 16.0225C30.679 16.0131 30.6677 15.9938 30.6621 15.9838Z" fill="#E8B835"/>
<path d="M30.748 16.1333C30.7537 16.1433 30.7649 16.1633 30.7705 16.1733C30.7649 16.1633 30.7537 16.1433 30.748 16.1333Z" fill="#E8B835"/>
<path d="M30.7715 16.1732C30.7771 16.1832 30.7884 16.2026 30.794 16.2126C30.7884 16.2026 30.7771 16.1832 30.7715 16.1732Z" fill="#E8B835"/>
<path d="M30.8555 16.3195C30.858 16.3245 30.8636 16.3338 30.8667 16.3382C30.8636 16.3338 30.858 16.3245 30.8555 16.3195Z" fill="#E8B835"/>
<path d="M30.9238 16.4381C30.9276 16.4444 30.9351 16.4575 30.9388 16.4637C30.9351 16.4575 30.9276 16.4444 30.9238 16.4381Z" fill="#E8B835"/>
<path d="M30.9961 16.5645C31.003 16.5757 31.0161 16.5988 31.023 16.6101C31.0161 16.5988 31.003 16.5757 30.9961 16.5645Z" fill="#E8B835"/>
<path d="M31.0234 16.61C31.0291 16.62 31.0409 16.64 31.0466 16.65C31.0409 16.64 31.0291 16.62 31.0234 16.61Z" fill="#E8B835"/>
<path d="M27.1989 16.7264C28.767 17.1596 30.3058 17.6927 31.8695 18.1421L31.8833 18.1933C30.1277 18.2333 28.3695 18.2002 26.6133 18.2096C26.7564 17.9777 27.1039 17.9321 27.162 17.6414C27.2377 17.3427 27.1777 17.0308 27.1989 16.7264Z" fill="#E8B835"/>
<path d="M31.1777 16.8851C31.184 16.8983 31.1965 16.9245 31.2021 16.9376C31.1965 16.9245 31.184 16.8983 31.1777 16.8851Z" fill="#E8B835"/>
<path d="M31.2324 17.0026C31.2399 17.0151 31.2549 17.0407 31.2618 17.0532C31.2549 17.0407 31.2399 17.0151 31.2324 17.0026Z" fill="#E8B835"/>
<path d="M31.2617 17.0532C31.2711 17.0657 31.2892 17.0895 31.2986 17.1013C31.2892 17.0895 31.2711 17.0657 31.2617 17.0532Z" fill="#E8B835"/>
<path d="M31.3418 17.1626C31.3493 17.1745 31.3643 17.1982 31.3724 17.2107C31.3643 17.1982 31.3493 17.1745 31.3418 17.1626Z" fill="#E8B835"/>
<path d="M31.4355 17.3202C31.4412 17.3302 31.4524 17.3502 31.458 17.3602C31.4524 17.3502 31.4412 17.3302 31.4355 17.3202Z" fill="#E8B835"/>
<path d="M31.457 17.36C31.4627 17.37 31.4739 17.3894 31.4802 17.3994C31.4739 17.3894 31.4627 17.37 31.457 17.36Z" fill="#E8B835"/>
<path d="M31.543 17.507C31.5455 17.512 31.5505 17.5207 31.553 17.5251C31.5505 17.5207 31.5455 17.512 31.543 17.507Z" fill="#E8B835"/>
<path d="M31.6113 17.6288C31.6138 17.6332 31.6188 17.6413 31.6213 17.6457C31.6188 17.6413 31.6138 17.6332 31.6113 17.6288Z" fill="#E8B835"/>
<path d="M31.6836 17.7513C31.6898 17.762 31.7023 17.7832 31.7086 17.7945C31.7023 17.7832 31.6898 17.762 31.6836 17.7513Z" fill="#E8B835"/>
<path d="M31.707 17.7944C31.7133 17.8051 31.7258 17.8263 31.7314 17.8369C31.7258 17.8263 31.7133 17.8051 31.707 17.7944Z" fill="#E8B835"/>
<path d="M31.7949 17.9445C31.7974 17.9488 31.8018 17.9576 31.8043 17.962C31.8018 17.9576 31.7974 17.9488 31.7949 17.9445Z" fill="#E8B835"/>
<path d="M31.8698 18.0858C31.8779 18.1002 31.8935 18.1289 31.9016 18.1433L31.8691 18.1421L31.8698 18.0858Z" fill="#E8B835"/>
<path d="M9.19992 21.4964C9.8443 20.3976 10.4568 19.2783 11.1224 18.1926C14.3493 18.2045 17.5768 18.1745 20.8031 18.2045L20.8443 18.2076C19.2124 18.2601 17.5762 18.1939 15.9443 18.2351C15.6331 18.4358 15.4256 18.7607 15.1274 18.9795C14.8506 19.1814 14.6468 19.4626 14.3824 19.6783C14.0118 19.9514 13.7362 20.3301 13.3599 20.5976C12.9249 21.0583 12.4231 21.4464 11.9843 21.9045C11.6556 22.157 11.3806 22.4689 11.0743 22.747C10.7374 22.9914 10.4793 23.3226 10.1643 23.5926C10.1562 23.5995 10.1406 23.6133 10.1324 23.6208C10.1156 23.6339 10.0824 23.6614 10.0656 23.6745C10.0574 23.6814 10.0424 23.6939 10.0343 23.7008C9.78618 23.8926 9.59618 24.1458 9.35242 24.3426C9.3443 24.3495 9.32867 24.3626 9.32117 24.3689C9.31305 24.3758 9.29743 24.3889 9.2893 24.3951C8.93367 24.687 8.64867 25.0564 8.27555 25.3283C7.89992 25.7008 7.47617 26.0208 7.1193 26.4133C6.5918 26.847 6.13555 27.3589 5.5918 27.7745C5.7268 27.4801 5.90555 27.2101 6.06242 26.9283C7.10867 25.1176 8.15367 23.307 9.19992 21.4964Z" fill="#296AD9"/>
<path d="M5.56445 27.8145C5.57133 27.8045 5.58508 27.7845 5.59195 27.7745L5.59008 27.8152L5.56445 27.8145Z" fill="#296AD9"/>
<path d="M20.8442 18.2076C22.7667 18.2157 24.6892 18.21 26.6123 18.2094C28.3686 18.2 30.1267 18.2332 31.8823 18.1932L31.9192 18.1907L31.9442 18.1975V18.2025C30.0905 21.4069 28.2423 24.615 26.3886 27.82C19.4555 27.8182 12.5223 27.8263 5.58984 27.815L5.59172 27.7744C6.13547 27.3588 6.59172 26.8469 7.11922 26.4132C7.47609 26.0207 7.89984 25.7007 8.27547 25.3282C8.64859 25.0563 8.93359 24.6869 9.28922 24.395C9.29734 24.3888 9.31297 24.3757 9.32109 24.3688C9.32859 24.3625 9.34422 24.3494 9.35234 24.3425C9.59609 24.1457 9.78609 23.8925 10.0342 23.7007C10.0423 23.6938 10.0573 23.6813 10.0655 23.6744C10.0823 23.6613 10.1155 23.6338 10.1323 23.6207C10.1405 23.6132 10.1561 23.5994 10.1642 23.5925C10.4792 23.3225 10.7373 22.9913 11.0742 22.7469C11.3805 22.4688 11.6555 22.1569 11.9842 21.9044C12.423 21.4463 12.9248 21.0582 13.3598 20.5975C13.7361 20.33 14.0117 19.9513 14.3823 19.6782C14.6467 19.4625 14.8505 19.1813 15.1273 18.9794C15.4255 18.7607 15.633 18.4357 15.9442 18.2351C17.5761 18.1938 19.2123 18.26 20.8442 18.2076Z" fill="#2A71E9"/>
<path d="M10.1328 23.6207C10.1409 23.6132 10.1566 23.5994 10.1647 23.5925C10.1566 23.5994 10.1409 23.6132 10.1328 23.6207Z" fill="#286EE6"/>
<path d="M10.0645 23.6744C10.0813 23.6612 10.1145 23.6337 10.1313 23.6206C10.1145 23.6337 10.0813 23.6612 10.0645 23.6744Z" fill="#286EE6"/>
<path d="M10.0332 23.7007C10.0413 23.6938 10.0563 23.6813 10.0645 23.6744C10.0563 23.6813 10.0413 23.6938 10.0332 23.7007Z" fill="#286EE6"/>
<path d="M9.32031 24.3688C9.32781 24.3625 9.34344 24.3494 9.35156 24.3425C9.34344 24.3494 9.32781 24.3625 9.32031 24.3688Z" fill="#286EE6"/>
<path d="M9.28906 24.395C9.29719 24.3888 9.31281 24.3756 9.32094 24.3688C9.31281 24.3756 9.29719 24.3888 9.28906 24.395Z" fill="#286EE6"/>
</svg>
