<svg width="172" height="26" viewBox="0 0 172 26" fill="none" xmlns="http://www.w3.org/2000/svg">
<g clip-path="url(#clip0)">
<path d="M0.298144 17.111L0.286448 17.614C0.286448 19.6608 0.274752 21.7075 0.286448 23.7543C0.286448 24.7719 1.01159 25.6374 2.02914 25.6724C3.43265 25.7309 4.83616 25.6958 6.25136 25.6958C7.2689 25.6958 8.16949 24.7719 8.1344 23.6023C8.09931 22.2923 8.15779 20.9824 8.16949 19.6724C8.18118 17.8947 8.20458 16.1052 8.21627 14.3274C8.21627 13.9999 8.26306 13.9415 8.57885 13.8596C9.2806 13.6608 10.0174 13.6374 10.7426 13.7894C12.0642 14.0701 13.0233 15.0877 13.1636 16.421C13.2338 17.0877 13.2338 17.766 13.2455 18.4327C13.2689 20.1871 13.2806 21.9531 13.304 23.7075C13.3157 24.8771 14.1578 25.7192 15.3274 25.7192C16.5788 25.7309 17.842 25.7309 19.0935 25.7309C20.2748 25.7309 21.1286 24.9005 21.1286 23.7075C21.1402 20.0935 21.1402 16.4795 21.1402 12.8654V12.7017C21.1052 12.3274 20.9648 11.9999 20.6256 11.8011C20.3917 11.6608 20.1461 11.5555 19.8771 11.4853C18.8595 11.2397 17.8069 11.1929 16.7777 11.3567C15.9824 11.4736 15.1987 11.6724 14.4034 11.8362C13.3742 12.0584 12.3098 12.1169 11.2572 12.0233C9.90048 11.883 8.7192 11.3099 7.60809 10.5379C7.08177 10.1754 6.55545 9.8245 6.00575 9.48532C5.33908 9.07596 4.60224 8.9473 3.83031 8.90052C3.01159 8.85374 2.18118 8.83034 1.37417 9.01748C0.730893 9.16953 0.403407 9.54379 0.333232 10.1754C0.321536 10.3157 0.30984 10.4444 0.30984 10.5847C0.298144 12.7602 0.298144 14.9356 0.298144 17.111ZM4.21627 7.88298C6.39171 7.89467 8.15779 6.12859 8.16949 3.95315C8.18118 1.77771 6.4151 0.0116316 4.23966 -6.43114e-05C2.06423 -0.0117602 0.298144 1.75432 0.286448 3.92976V3.94146C0.286448 6.1052 2.04083 7.87128 4.21627 7.88298ZM21.0233 5.96485C21.035 3.78941 19.2689 2.02333 17.0935 2.01163C14.918 1.99994 13.1519 3.76602 13.1402 5.94146C13.1286 8.11689 14.8946 9.88298 17.0701 9.89467C19.2572 9.89467 21.0116 8.14029 21.0233 5.96485ZM44.8478 25.6491H40.3449V17.8362H32.497V25.6491H28.0057V6.57303H32.5087V13.8596H40.3566V6.57303H44.8478V25.6491ZM53.4911 13.9882C52.0993 13.9882 51.1169 14.7017 50.9648 16.0701H46.9063C47.0935 13.4151 49.6666 11.0409 53.8537 11.0409C57.9122 11.0409 60.2514 12.6783 60.1695 16.9941L60.1227 20.0701C60.0993 21.9181 60.1695 24.4444 60.4385 25.6491H56.1812L56.1227 23.9415C55.0701 25.4385 53.3859 25.9882 51.3625 25.9882C48.6724 25.9882 46.4619 24.4093 46.4619 21.8245C46.4619 18.3508 50.38 17.1929 55.8888 16.7953V16.2572C55.8771 14.5964 55.0467 13.9882 53.4911 13.9882ZM52.9297 23.0526C54.6607 23.0526 55.9824 22.3157 55.9824 19.7075V19.3684C52.9531 19.6257 50.9297 20.0233 50.9297 21.5321C50.9297 22.4444 51.8069 23.0526 52.9297 23.0526ZM71.5262 11.1812C75.1519 11.1812 76.2864 13.3099 76.2864 17.1578V25.6608H71.9473V18.2339C71.9473 16.2105 71.8654 14.5496 69.7601 14.5496C67.9122 14.5496 67.1285 15.7894 67.1285 18.3976V25.6608H62.7777V11.497H67.1169V13.3684C67.7601 12.304 69.3157 11.1812 71.5262 11.1812ZM93.0935 25.6491H88.7543V23.7543C87.8303 25.3099 85.9706 25.9882 84.4151 25.9882C80.7894 25.9882 78.1812 23.2046 78.1812 18.5613C78.1812 13.9181 80.7894 11.1695 84.4151 11.1695C85.9706 11.1695 87.842 11.8596 88.7543 13.4034V6.57303H93.0935V25.6491ZM85.8303 22.6315C87.5379 22.6315 88.9648 21.497 88.9648 18.5847C88.9648 15.6724 87.5379 14.5613 85.8303 14.5613C84.0993 14.5613 82.6724 15.9531 82.6724 18.5847C82.6724 21.2163 84.0876 22.6315 85.8303 22.6315ZM101.865 14.2806C100.392 14.2806 99.5964 14.6783 99.5964 15.3333C99.5964 15.9882 100.099 16.3625 101.339 16.5964L103.971 17.0643C107.398 17.6958 109 18.7017 109 21.1929C109 24.3742 106.076 25.9882 102.158 25.9882C98.4151 25.9882 95.7133 24.3508 95.2104 21.0409H99.2338C99.5964 22.4093 100.707 22.8303 102.205 22.8303C103.737 22.8303 104.836 22.4093 104.836 21.5672C104.836 20.9356 104.251 20.5379 102.626 20.2572L100.099 19.8362C97.3625 19.3917 95.4911 17.9882 95.4911 15.497C95.4911 12.6549 98.4619 11.1227 101.971 11.1227C105.21 11.1227 108.134 12.4327 108.684 15.6491H104.626C104.368 14.5964 103.234 14.2806 101.865 14.2806ZM124.567 17.1461V25.6491H120.228V18.2222C120.228 16.1988 120.181 14.5379 118.064 14.5379C116.216 14.5379 115.409 15.7777 115.409 18.3859V25.6491H111.07V6.57303H115.409V13.3684C116.041 12.3157 117.596 11.1812 119.807 11.1812C123.433 11.1812 124.567 13.3099 124.567 17.1461ZM133.503 13.9882C132.111 13.9882 131.14 14.7017 130.977 16.0701H126.918C127.105 13.4151 129.678 11.0409 133.865 11.0409C137.924 11.0409 140.263 12.6783 140.181 16.9941L140.134 20.0701C140.111 21.9181 140.181 24.4444 140.45 25.6491H136.193L136.146 23.9415C135.093 25.4385 133.409 25.9882 131.386 25.9882C128.696 25.9882 126.485 24.4093 126.485 21.8245C126.485 18.3508 130.403 17.1929 135.912 16.7953V16.2572C135.9 14.5964 135.058 13.9882 133.503 13.9882ZM132.953 23.0526C134.696 23.0526 136.006 22.3157 136.006 19.7075V19.3684C132.977 19.6257 130.953 20.0233 130.953 21.5321C130.953 22.4444 131.819 23.0526 132.953 23.0526ZM147.164 16.8888L151.924 11.497H157.058L152.006 16.9239L157.479 25.6608H152.403L149.058 20.0818L147.164 22.1052V25.6608H142.824V6.57303H147.164V16.8888Z" fill="#001F35"/>
<path d="M164.696 26C160.088 26 156.93 23.1813 156.93 18.503C156.93 13.9766 160.38 11.076 164.509 11.076C169.199 11.076 172.088 14.655 171.795 19.6842H161.292C161.421 21.6842 162.976 22.6316 164.555 22.6316C166.193 22.6316 167.245 22.0468 167.737 21.2047H171.737C170.485 24.5497 167.538 26 164.696 26ZM167.479 17.0527C167.433 15.2866 166.134 14.3977 164.509 14.3977C162.988 14.3977 161.585 15.193 161.351 17.0527H167.479Z" fill="#001F35"/>
</g>
<defs>
<clipPath id="clip0">
<rect width="171.532" height="26" fill="white" transform="translate(0.287109)"/>
</clipPath>
</defs>
</svg>
