<svg width="125" height="30" viewBox="0 0 125 30" fill="none" xmlns="http://www.w3.org/2000/svg">
<g clip-path="url(#clip0)">
<path fill-rule="evenodd" clip-rule="evenodd" d="M14.9427 0L4.8418 5.15778L16.9625 17.7778L27.064 12.62L14.9427 0Z" fill="#001F35"/>
<path fill-rule="evenodd" clip-rule="evenodd" d="M13.176 28.8888L9.28711 27.8331V21.6666L13.176 22.7223V28.8888Z" fill="#001F35"/>
<path fill-rule="evenodd" clip-rule="evenodd" d="M0.953125 13.013V25.5556L9.28646 21.431V8.88892L0.953125 13.013Z" fill="#001F35"/>
<path fill-rule="evenodd" clip-rule="evenodd" d="M17.0645 17.7947V30.0001L27.0645 24.9832V12.7778L17.0645 17.7947Z" fill="#001F35"/>
<path fill-rule="evenodd" clip-rule="evenodd" d="M14.9427 0L4.8418 5.15778L16.9625 17.7778L27.064 12.62L14.9427 0Z" fill="#001F35"/>
<path fill-rule="evenodd" clip-rule="evenodd" d="M13.176 28.8888L9.28711 27.8331V21.6666L13.176 22.7223V28.8888Z" fill="#001F35"/>
<path fill-rule="evenodd" clip-rule="evenodd" d="M46.5354 16.1415H37.5948V9.44446H35.3984V25H37.5948V18.1943H46.5354V25H48.7318V9.44446H46.5354V16.1415Z" fill="#001F35"/>
<path fill-rule="evenodd" clip-rule="evenodd" d="M66.453 21.1978C65.388 22.2481 63.9046 22.8268 62.2746 22.8268C60.6491 22.8268 59.1691 22.2481 58.1057 21.1978C57.0218 20.1273 56.4256 18.6081 56.4256 16.9207C56.4256 15.2326 57.0218 13.714 58.1057 12.6435C59.1691 11.5926 60.6491 11.0145 62.2746 11.0145C63.9046 11.0145 65.388 11.5926 66.453 12.6435C67.5374 13.7133 68.1335 15.2326 68.1335 16.9207C68.1335 18.6087 67.5374 20.128 66.453 21.1978ZM62.2746 8.92957C57.5757 8.92957 54.166 12.2902 54.166 16.9207C54.166 21.5511 57.5757 24.9118 62.2746 24.9118C66.973 24.9118 70.3835 21.5511 70.3835 16.9207C70.3835 12.2902 66.973 8.92957 62.2746 8.92957Z" fill="#001F35"/>
<path fill-rule="evenodd" clip-rule="evenodd" d="M81.2557 22.2462L75.5312 9.146H73.2129L79.9612 24.5721L80.0151 24.6951H82.4618L89.2534 9.146H86.9896L81.2557 22.2462Z" fill="#001F35"/>
<path fill-rule="evenodd" clip-rule="evenodd" d="M95.8427 17.882H103.926V15.8513H95.8427V11.1875H105.369V9.14612H93.6699V24.6951H105.468V22.6538H95.8427V17.882Z" fill="#001F35"/>
<path fill-rule="evenodd" clip-rule="evenodd" d="M113.341 16.1215V11.1873H117.353C119.566 11.1873 120.689 12.0066 120.689 13.6219C120.689 15.2808 119.566 16.1215 117.353 16.1215H113.341ZM118.942 18.0363C120.914 17.7338 122.926 16.4574 122.926 13.6219C122.926 12.1934 122.436 11.0763 121.469 10.3012C120.512 9.53444 119.135 9.146 117.375 9.146H111.168V24.6956H113.341V18.1092H116.514L121.243 24.6956H123.856L118.942 18.0363Z" fill="#001F35"/>
</g>
<defs>
<clipPath id="clip0">
<rect width="123.333" height="30" fill="white" transform="translate(0.953125)"/>
</clipPath>
</defs>
</svg>
