<svg width="81" height="24" viewBox="0 0 81 24" fill="none" xmlns="http://www.w3.org/2000/svg">
<g clip-path="url(#clip0)">
<path fill-rule="evenodd" clip-rule="evenodd" d="M1.14553 23.6495V7.36125H5.63238V23.6261L1.14553 23.6495ZM3.36558 5.16456C1.94007 5.16456 0.818359 4.11295 0.818359 2.71081C0.818359 1.30867 1.94007 0.257059 3.36558 0.257059C4.83783 0.257059 5.95955 1.30867 5.95955 2.71081C5.95955 4.11295 4.81447 5.16456 3.36558 5.16456ZM9.7687 23.6495V7.36125H14.2789V9.95521C15.0968 8.34275 16.8729 6.98734 19.5837 6.98734C22.7853 6.98734 25.0754 8.92697 25.0754 13.2736V23.6261H20.5418V13.9513C20.5418 11.7313 19.6772 10.6797 17.6674 10.6797C15.7278 10.6797 14.2789 11.8715 14.2789 14.2551V23.6495H9.7687ZM35.0306 24C31.0813 24 27.9732 21.1723 27.9732 15.7507V15.517C27.9732 10.1655 31.0579 7.01071 35.1241 7.01071C37.7414 7.01071 39.3539 8.15579 40.2653 9.815V0H44.7522V23.6495H40.2653V20.9387C39.424 22.5979 37.4143 24 35.0306 24ZM36.3627 20.4946C38.7229 20.4946 40.3821 18.9056 40.3821 15.6105V15.3535C40.3821 12.1285 38.9566 10.4693 36.4795 10.4693C33.9557 10.4693 32.5535 12.1753 32.5535 15.4236V15.6806C32.5535 18.8822 34.1192 20.4946 36.3627 20.4946ZM48.8885 23.6495V7.36125H53.3753V23.6261L48.8885 23.6495ZM51.0852 5.16456C49.6597 5.16456 48.5379 4.11295 48.5379 2.71081C48.5379 1.30867 49.6597 0.257059 51.0852 0.257059C52.5574 0.257059 53.6791 1.30867 53.6791 2.71081C53.6791 4.11295 52.5574 5.16456 51.0852 5.16456ZM65.1066 20.5648C67.6304 20.5648 69.1027 18.6952 69.1027 15.6105V15.4002C69.1027 12.2921 67.6304 10.4226 65.1066 10.4226C62.5827 10.4226 61.1105 12.222 61.1105 15.3301V15.5871C61.1105 18.6952 62.5594 20.5648 65.1066 20.5648ZM65.0832 24C60.2225 24 56.5301 20.7751 56.5301 15.6806V15.4236C56.5301 10.3291 60.2458 6.98734 65.13 6.98734C70.0141 6.98734 73.683 10.259 73.683 15.3301V15.5871C73.683 20.7283 69.9673 24 65.0832 24Z" fill="#001F35"/>
<path d="M74.7344 6.9873H77.1648V7.52479H76.3001V9.5579H75.599V7.52479H74.7344V6.9873ZM80.0158 9.5579V8.10902L79.2446 9.30084H78.9408L78.1696 8.13239V9.5579H77.5153V6.9873H78.0762L79.1044 8.52966L80.1093 6.9873H80.6701L80.6935 9.53453H80.0158V9.5579Z" fill="#001F35"/>
</g>
<defs>
<clipPath id="clip0">
<rect width="79.8754" height="24" fill="white" transform="translate(0.818359)"/>
</clipPath>
</defs>
</svg>
