<svg width="179" height="30" viewBox="0 0 179 30" fill="none" xmlns="http://www.w3.org/2000/svg">
<g clip-path="url(#clip0)">
<path fill-rule="evenodd" clip-rule="evenodd" d="M2.76253 29.2005H50.159C50.159 14.6417 50.0619 0.0828857 50.0619 0.0828857H2.72989C2.02753 0.0828857 1.43459 0.656415 1.34636 1.41965C0.947534 4.88906 0.0854753 14.8199 1.37724 27.8355C1.454 28.612 2.05048 29.2005 2.76253 29.2005ZM9.87427 16.3649L9.13045 17.9179V23.1344H6.72604V6.14994H9.13045V13.5502L12.2787 6.14994H14.6831L11.339 13.7205L14.6831 23.1352H12.2125L9.87427 16.3658V16.3649ZM23.2904 13.3076H19.9904V8.57641H24.1428V6.14994H17.5843V23.1344H24.1428V20.7079H19.9896V15.7341H23.2904V13.3076ZM29.6407 13.3076H32.9416V15.7341H29.6416V20.7079H33.7949V23.1344H27.2363V6.14994H33.7949V8.57641H29.6407V13.3076ZM44.0152 10.3464C44.0152 7.60494 42.8558 6.14906 40.4293 6.14906V6.14994H36.8884V23.1344H39.2928V16.7532H40.4293C42.8566 16.7532 44.0152 15.2964 44.0152 12.5549V10.3464ZM39.2911 14.3258V8.57553H40.4275C41.1934 8.57553 41.609 8.93906 41.609 10.177V12.7244C41.609 13.9623 41.1934 14.3258 40.4275 14.3258H39.2911Z" fill="#001F35"/>
<path fill-rule="evenodd" clip-rule="evenodd" d="M68.2561 29.2005H51.3652V0.0828857H68.2561V29.2005ZM86.3505 29.2005H69.4614V0.0828857H86.3505V29.2005ZM87.5593 29.2005H104.45V0.0828857H87.5593V29.2005ZM122.549 29.2005H105.658V0.0828857H122.549V29.2005ZM123.754 29.2005H140.644V0.0828857H123.754V29.2005ZM158.742 29.2005H141.851V0.0828857H158.742V29.2005ZM175.862 29.2005H159.985C159.899 14.6417 159.985 0.0828857 159.985 0.0828857H175.895C176.637 0.0828857 177.261 0.656415 177.355 1.41965C177.776 4.88906 178.685 14.8199 177.323 27.8355C177.242 28.6111 176.613 29.2005 175.862 29.2005ZM94.7946 19.0852V6.14994H92.4131V18.9176C92.4131 21.6255 94.0155 23.1344 96.0017 23.1344C97.9878 23.1344 99.6264 21.6246 99.6264 18.9176V6.14906H97.2078V19.0852C97.2078 20.3064 96.7005 20.7141 96.0564 20.7141C95.4131 20.7141 94.7946 20.3064 94.7946 19.0852ZM116.513 18.9591V16.7532V16.7523H114.601V19.1241C114.601 20.3338 114.196 20.737 113.553 20.737C112.908 20.737 112.504 20.3338 112.504 19.1241V10.1567C112.504 8.947 112.908 8.51994 113.553 8.51994C114.196 8.51994 114.601 8.94788 114.601 10.1567V11.9364H116.513V10.3226C116.513 7.642 115.483 6.14818 113.497 6.14818C111.511 6.14818 110.481 7.642 110.481 10.3235V18.9591C110.481 21.6396 111.511 23.1344 113.497 23.1344C115.483 23.1344 116.513 21.6396 116.513 18.9591ZM130.764 17.917L131.44 16.3641L133.568 23.1344H135.815L132.773 13.7196L135.815 6.14906H133.628L130.764 13.5494V6.14906H128.576V23.1344H130.764V17.917ZM151.501 23.1344H149.088V6.14906H151.501V23.1344ZM166.828 23.1352V10.8326L169.669 23.1352H172.014V6.14994H169.981V16.3155L167.636 6.14906H164.774V23.1352H166.828ZM56.189 6.14906H63.4279V8.57553H60.9793V23.1344H58.6376V8.57553H56.189V6.14906ZM79.103 22.9305C79.1044 22.9352 79.1058 22.9399 79.1073 22.9447C79.1279 23.0067 79.1444 23.0701 79.1567 23.1344H81.5267C81.2946 22.4788 81.2735 21.9211 81.2735 21.0714V18.4508C81.2735 16.6799 80.9135 15.3935 79.7276 14.8358C80.7441 14.2773 81.2523 13.1373 81.2523 11.3902V10.0552C81.2523 7.43465 80.2358 6.14906 77.8023 6.14906H74.2879V23.1344H76.6164V16.2185H77.4211C78.5002 16.2185 78.9449 16.8008 78.9449 18.3785V21.0476C78.9449 21.3873 78.9449 21.6785 78.9661 21.8964C78.9661 22.3579 79.0085 22.6244 79.072 22.8185C79.0799 22.8554 79.0912 22.8923 79.103 22.9305ZM76.6173 13.7929V8.57642H77.7396C78.5646 8.57642 78.9247 9.08642 78.9247 10.3235V11.9973C78.9247 13.3561 78.3961 13.7929 77.5279 13.7929H76.6173Z" fill="#001F35"/>
</g>
<defs>
<clipPath id="clip0">
<rect width="177.353" height="30" fill="white" transform="translate(0.693359)"/>
</clipPath>
</defs>
</svg>
