<svg width="34" height="32" viewBox="0 0 34 32" fill="none" xmlns="http://www.w3.org/2000/svg">
<path d="M20.5571 17.6L18.185 0H18.0079C9.3824 0.0254781 2.39628 7.09378 2.37109 15.8208V16L20.5571 17.6Z" fill="#ED6C47"/>
<path d="M18.3627 0H18.1855V16L26.0925 19.2L33.9995 16V15.8208C33.9743 7.09379 26.9882 0.0254782 18.3627 0Z" fill="#FF8F6B"/>
<path d="M33.999 16V16.176C33.9742 24.905 26.9865 31.975 18.359 32H18.0111C9.38364 31.975 2.39585 24.905 2.37109 16.176V16H33.999Z" fill="#D35230"/>
<path opacity="0.1" d="M18.9758 7.86391V24.9359C18.9718 25.5291 18.6165 26.062 18.0744 26.2879C17.9017 26.3618 17.7162 26.3999 17.5288 26.3999H6.10321C5.88181 26.1439 5.66833 25.8719 5.47065 25.5999C3.45618 22.881 2.36849 19.5739 2.37111 16.1759V15.8239C2.36649 12.759 3.25182 9.76015 4.91716 7.1999C5.09111 6.9279 5.27296 6.6559 5.47065 6.3999H17.5288C18.3254 6.40601 18.9697 7.05791 18.9758 7.86391Z" fill="black"/>
<path opacity="0.2" d="M18.1851 8.66408V25.7361C18.185 25.9257 18.1474 26.1134 18.0744 26.2881C17.8511 26.8366 17.3244 27.1961 16.7381 27.2001H6.82275C6.57258 26.9431 6.33253 26.6762 6.10321 26.4001C5.88181 26.1441 5.66833 25.8721 5.47065 25.6001C3.45618 22.8812 2.36849 19.5741 2.37111 16.1761V15.8241C2.36649 12.7591 3.25182 9.76032 4.91716 7.20007H16.7381C17.5347 7.20617 18.1791 7.85806 18.1851 8.66408Z" fill="black"/>
<path opacity="0.2" d="M18.1851 8.66394V24.1359C18.179 24.9419 17.5347 25.5938 16.7381 25.5999H5.47065C3.45618 22.881 2.36849 19.574 2.37111 16.1759V15.8239C2.36649 12.759 3.25182 9.7602 4.91716 7.19995H16.7381C17.5347 7.20603 18.179 7.85792 18.1851 8.66394Z" fill="black"/>
<path opacity="0.2" d="M17.3944 8.66394V24.1359C17.3883 24.9419 16.744 25.5938 15.9474 25.5999H5.47065C3.45618 22.881 2.36849 19.574 2.37111 16.1759V15.8239C2.36649 12.759 3.25182 9.7602 4.91716 7.19995H15.9474C16.744 7.20603 17.3883 7.85792 17.3944 8.66394Z" fill="black"/>
<path d="M1.44934 7.20007H15.946C16.7465 7.20007 17.3954 7.85661 17.3954 8.66647V23.3337C17.3954 24.1435 16.7464 24.8001 15.946 24.8001H1.44934C0.648904 24.8001 0 24.1435 0 23.3337V8.66647C0 7.85661 0.648904 7.20007 1.44934 7.20007Z" fill="url(#paint0_linear)"/>
<path d="M8.85512 11.1112C9.79881 11.0468 10.7344 11.3241 11.4945 11.8936C12.1285 12.4663 12.4672 13.3019 12.4133 14.16C12.4236 14.7565 12.2665 15.3438 11.9602 15.8536C11.6501 16.3546 11.2033 16.7542 10.6737 17.004C10.0683 17.2889 9.40641 17.4296 8.73888 17.4152H6.90526V20.8632H5.02734V11.1112H8.85512ZM6.90368 15.9256H8.51988C9.03224 15.9637 9.54063 15.8103 9.94868 15.4944C10.2862 15.1669 10.4631 14.7049 10.4318 14.2328C10.4318 13.1581 9.81451 12.6208 8.57998 12.6208H6.9037V15.9256H6.90368Z" fill="white"/>
<defs>
<linearGradient id="paint0_linear" x1="3.02193" y1="6.05426" x2="14.5737" y2="25.8289" gradientUnits="userSpaceOnUse">
<stop stop-color="#CA4C28"/>
<stop offset="0.5" stop-color="#C5401E"/>
<stop offset="1" stop-color="#B62F14"/>
</linearGradient>
</defs>
</svg>
